<?xml version="1.0" encoding="UTF-8" standalone="no"?>
<svg width="312.914mm" height="54.3278mm"
 xmlns="http://www.w3.org/2000/svg" xmlns:xlink="http://www.w3.org/1999/xlink"  version="1.2" baseProfile="tiny">
<title>Qt SVG Document</title>
<desc>Generated with Qt</desc>
<defs>
</defs>
<g fill="none" stroke="black" stroke-width="1" fill-rule="evenodd" stroke-linecap="square" stroke-linejoin="bevel" >

<g fill="none" stroke="#000000" stroke-opacity="1" stroke-width="1" stroke-linecap="square" stroke-linejoin="bevel" transform="matrix(1,0,0,1,0,0)"
font-family="Ubuntu" font-size="11" font-weight="400" font-style="normal" 
>
</g>

<g fill="none" stroke="#000000" stroke-opacity="1" stroke-width="1" stroke-linecap="square" stroke-linejoin="bevel" transform="matrix(1,0,0,1,0,0)"
font-family="Ubuntu" font-size="11" font-weight="400" font-style="normal" 
>
</g>

<g fill="none" stroke="#000000" stroke-opacity="1" stroke-width="1" stroke-linecap="square" stroke-linejoin="bevel" transform="matrix(1.99364,0,0,1.99364,-0.000398728,142.39)"
font-family="Ubuntu" font-size="11" font-weight="400" font-style="normal" 
>
</g>

<g fill="#ffffff" fill-opacity="1" stroke="none" transform="matrix(1.99364,0,0,1.99364,-0.000398728,142.39)"
font-family="Ubuntu" font-size="11" font-weight="400" font-style="normal" 
>
<rect x="0.0002" y="-71.422" width="443.385" height="77.2456"/>
</g>

<g fill="none" stroke="#000000" stroke-opacity="1" stroke-width="1" stroke-linecap="square" stroke-linejoin="bevel" transform="matrix(1.99364,0,0,1.99364,-0.000398728,142.39)"
font-family="Ubuntu" font-size="11" font-weight="400" font-style="normal" 
>
</g>

<g fill="none" stroke="#000000" stroke-opacity="1" stroke-width="1" stroke-linecap="square" stroke-linejoin="bevel" transform="matrix(1.99364,0,0,1.99364,-0.000398728,142.39)"
font-family="Ubuntu" font-size="11" font-weight="400" font-style="normal" 
>
</g>

<g fill="none" stroke="#000000" stroke-opacity="1" stroke-width="1" stroke-linecap="square" stroke-linejoin="bevel" transform="matrix(1.99364,0,0,1.99364,-0.000398728,142.39)"
font-family="Ubuntu" font-size="11" font-weight="400" font-style="normal" 
>
</g>

<g fill="none" stroke="#000000" stroke-opacity="1" stroke-width="1" stroke-linecap="square" stroke-linejoin="bevel" transform="matrix(1.99364,0,0,1.99364,-0.000398728,142.39)"
font-family="Ubuntu" font-size="11" font-weight="400" font-style="normal" 
>
</g>

<g fill="none" stroke="#000000" stroke-opacity="1" stroke-width="1" stroke-linecap="square" stroke-linejoin="round" transform="matrix(1.99364,0,0,1.99364,-0.000398728,142.39)"
font-family="Ubuntu" font-size="11" font-weight="400" font-style="normal" 
>
<ellipse cx="57.845" cy="-30.922" rx="57.3448" ry="17.5"/>
</g>

<g fill="none" stroke="#000000" stroke-opacity="1" stroke-width="1" stroke-linecap="square" stroke-linejoin="bevel" transform="matrix(1.99364,0,0,1.99364,-0.000398728,142.39)"
font-family="Ubuntu" font-size="11" font-weight="400" font-style="normal" 
>
</g>

<g fill="none" stroke="#000000" stroke-opacity="1" stroke-width="1" stroke-linecap="square" stroke-linejoin="bevel" transform="matrix(1.99364,0,0,1.99364,41.853,66.7869)"
font-family="Ubuntu" font-size="11" font-weight="400" font-style="normal" 
>
</g>

<g fill="none" stroke="#000000" stroke-opacity="1" stroke-width="1" stroke-linecap="square" stroke-linejoin="bevel" transform="matrix(1.99364,0,0,1.99364,41.853,66.7869)"
font-family="sans" font-size="11" font-weight="100" font-style="normal" 
>
</g>

<g fill="#000000" fill-opacity="1" stroke="#000000" stroke-opacity="1" stroke-width="1" stroke-linecap="square" stroke-linejoin="round" transform="matrix(1.99364,0,0,1.99364,41.853,66.7869)"
font-family="sans" font-size="11" font-weight="100" font-style="normal" 
>
<path vector-effect="none" fill-rule="nonzero" d="M2.96875,2.98438 L3.53125,2.98438 L0.734375,12.0156 L0.171875,12.0156 L2.96875,2.98438 M5.46875,3.28125 L5.46875,4.98438 L7.5,4.98438 L7.5,5.40625 L5.46875,5.40625 L5.46875,9.01563 C5.46875,9.47396 5.52604,9.79688 5.64063,9.98438 C5.89063,10.3802 6.25,10.5781 6.71875,10.5781 L7.5,10.5781 L7.5,11 L6.73438,11 C6.24479,11 5.82813,10.8568 5.48438,10.5703 C5.14063,10.2839 4.96875,9.76563 4.96875,9.01563 L4.96875,5.40625 L4.25,5.40625 L4.25,4.98438 L4.96875,4.98438 L4.96875,3.28125 L5.46875,3.28125 M13.9531,7.75 L13.9531,8.0625 L9.39063,8.0625 C9.39063,9.02083 9.57813,9.69792 9.95313,10.0938 C10.3698,10.5208 10.9844,10.7344 11.7969,10.7344 C12.0156,10.7344 12.3021,10.6875 12.6563,10.5938 C13.0104,10.5 13.3646,10.3594 13.7188,10.1719 L13.7188,10.6875 C13.3646,10.8438 13.0026,10.9609 12.6328,11.0391 C12.263,11.1172 11.9688,11.1563 11.75,11.1563 C10.8229,11.1563 10.125,10.9063 9.65625,10.4063 C9.14583,9.875 8.89063,9.09375 8.89063,8.0625 C8.89063,6.98958 9.11979,6.1875 9.57813,5.65625 C10.0573,5.11458 10.724,4.84375 11.5781,4.84375 C12.3594,4.84375 12.9531,5.10417 13.3594,5.625 C13.7552,6.16667 13.9531,6.875 13.9531,7.75 M13.4531,7.64063 C13.4531,6.79688 13.2604,6.18229 12.875,5.79688 C12.5625,5.45313 12.1302,5.28125 11.5781,5.28125 C10.9844,5.28125 10.4844,5.45833 10.0781,5.8125 C9.70313,6.14583 9.47917,6.75521 9.40625,7.64063 L13.4531,7.64063 M16.0313,2.64063 L16.5156,2.64063 L16.5156,11 L16.0313,11 L16.0313,2.64063 M23.7656,7.75 L23.7656,8.0625 L19.2031,8.0625 C19.2031,9.02083 19.3906,9.69792 19.7656,10.0938 C20.1823,10.5208 20.7969,10.7344 21.6094,10.7344 C21.8281,10.7344 22.1146,10.6875 22.4688,10.5938 C22.8229,10.5 23.1771,10.3594 23.5313,10.1719 L23.5313,10.6875 C23.1771,10.8438 22.8151,10.9609 22.4453,11.0391 C22.0755,11.1172 21.7813,11.1563 21.5625,11.1563 C20.6354,11.1563 19.9375,10.9063 19.4688,10.4063 C18.9583,9.875 18.7031,9.09375 18.7031,8.0625 C18.7031,6.98958 18.9323,6.1875 19.3906,5.65625 C19.8698,5.11458 20.5365,4.84375 21.3906,4.84375 C22.1719,4.84375 22.7656,5.10417 23.1719,5.625 C23.5677,6.16667 23.7656,6.875 23.7656,7.75 M23.2656,7.64063 C23.2656,6.79688 23.0729,6.18229 22.6875,5.79688 C22.375,5.45313 21.9427,5.28125 21.3906,5.28125 C20.7969,5.28125 20.2969,5.45833 19.8906,5.8125 C19.5156,6.14583 19.2917,6.75521 19.2188,7.64063 L23.2656,7.64063 M29.4219,6.01563 C29.0677,5.52604 28.5833,5.28125 27.9688,5.28125 C27.3542,5.28125 26.8698,5.52604 26.5156,6.01563 C26.1615,6.49479 25.9844,7.15104 25.9844,7.98438 C25.9844,8.83854 26.1615,9.51042 26.5156,10 C26.8698,10.4896 27.3542,10.7344 27.9688,10.7344 C28.5833,10.7344 29.0677,10.4896 29.4219,10 C29.776,9.5 29.9531,8.82813 29.9531,7.98438 C29.9531,7.16146 29.776,6.50521 29.4219,6.01563 M27.9688,4.84375 C28.7292,4.84375 29.3333,5.13021 29.7813,5.70313 C30.2292,6.27604 30.4531,7.03646 30.4531,7.98438 C30.4531,8.97396 30.2292,9.75521 29.7813,10.3281 C29.3333,10.901 28.7292,11.1875 27.9688,11.1875 C27.1875,11.1875 26.5729,10.901 26.125,10.3281 C25.6875,9.75521 25.4688,8.97396 25.4688,7.98438 C25.4688,7.02604 25.6927,6.26302 26.1406,5.69531 C26.5885,5.1276 27.1979,4.84375 27.9688,4.84375 M33.0469,9.64063 L33.0469,13.2813 L32.5625,13.2813 L32.5625,4.98438 L33.0469,4.98438 L33.0469,6.35938 C33.276,5.83854 33.5208,5.47917 33.7813,5.28125 C34.1875,4.98958 34.5729,4.84375 34.9375,4.84375 C35.6458,4.84375 36.237,5.13281 36.7109,5.71094 C37.1849,6.28906 37.4219,7.05208 37.4219,8 C37.4219,8.94792 37.1849,9.71094 36.7109,10.2891 C36.237,10.8672 35.6458,11.1563 34.9375,11.1563 C34.5729,11.1563 34.1875,11.0052 33.7813,10.7031 C33.5208,10.5156 33.276,10.1615 33.0469,9.64063 M36.2813,10.0938 C36.6979,9.67708 36.9063,8.97917 36.9063,8 C36.9063,7.02083 36.6979,6.32292 36.2813,5.90625 C35.8646,5.48958 35.4271,5.28125 34.9688,5.28125 C34.5208,5.28125 34.0885,5.48958 33.6719,5.90625 C33.2656,6.32292 33.0625,7.02083 33.0625,8 C33.0625,8.97917 33.2656,9.67708 33.6719,10.0938 C34.0885,10.5104 34.5208,10.7188 34.9688,10.7188 C35.4271,10.7188 35.8646,10.5104 36.2813,10.0938 M43.8906,13.1719 L43.8906,13.5938 L38.1719,13.5938 L38.1719,13.1719 L43.8906,13.1719 M45.5469,3.28125 L45.5469,4.98438 L47.5781,4.98438 L47.5781,5.40625 L45.5469,5.40625 L45.5469,9.01563 C45.5469,9.47396 45.6042,9.79688 45.7188,9.98438 C45.9688,10.3802 46.3281,10.5781 46.7969,10.5781 L47.5781,10.5781 L47.5781,11 L46.8125,11 C46.3229,11 45.9063,10.8568 45.5625,10.5703 C45.2188,10.2839 45.0469,9.76563 45.0469,9.01563 L45.0469,5.40625 L44.3281,5.40625 L44.3281,4.98438 L45.0469,4.98438 L45.0469,3.28125 L45.5469,3.28125 M49.2813,8.60938 L49.2813,4.98438 L49.7656,4.98438 L49.7656,8.57813 C49.7656,9.35938 49.8906,9.90885 50.1406,10.2266 C50.3906,10.5443 50.7604,10.7031 51.25,10.7031 C51.8229,10.7031 52.3125,10.5313 52.7188,10.1875 C53.125,9.84375 53.3281,9.24479 53.3281,8.39063 L53.3281,4.98438 L53.8125,4.98438 L53.8125,11 L53.3281,11 L53.3281,9.875 C53.151,10.2396 52.9167,10.5156 52.625,10.7031 C52.2083,10.9948 51.7448,11.1406 51.2344,11.1406 C50.6406,11.1406 50.1667,10.9375 49.8125,10.5313 C49.4583,10.1354 49.2813,9.49479 49.2813,8.60938 M59.5781,5.40625 C59.4948,5.36458 59.3854,5.33333 59.25,5.3125 C59.125,5.29167 58.974,5.28125 58.7969,5.28125 C58.1823,5.28125 57.6771,5.50521 57.2813,5.95313 C56.9583,6.31771 56.7969,6.94271 56.7969,7.82813 L56.7969,11 L56.3125,11 L56.3125,4.98438 L56.7969,4.98438 L56.7969,6.10938 C56.9635,5.78646 57.1927,5.51563 57.4844,5.29688 C57.8802,4.99479 58.349,4.84375 58.8906,4.84375 C59.0365,4.84375 59.1615,4.84896 59.2656,4.85938 C59.3698,4.85938 59.474,4.86979 59.5781,4.89063 L59.5781,5.40625 M61.3438,3.28125 L61.3438,4.98438 L63.375,4.98438 L63.375,5.40625 L61.3438,5.40625 L61.3438,9.01563 C61.3438,9.47396 61.401,9.79688 61.5156,9.98438 C61.7656,10.3802 62.125,10.5781 62.5938,10.5781 L63.375,10.5781 L63.375,11 L62.6094,11 C62.1198,11 61.7031,10.8568 61.3594,10.5703 C61.0156,10.2839 60.8438,9.76563 60.8438,9.01563 L60.8438,5.40625 L60.125,5.40625 L60.125,4.98438 L60.8438,4.98438 L60.8438,3.28125 L61.3438,3.28125 M65.1406,2.64063 L65.625,2.64063 L65.625,11 L65.1406,11 L65.1406,2.64063 M72.875,7.75 L72.875,8.0625 L68.3125,8.0625 C68.3125,9.02083 68.5,9.69792 68.875,10.0938 C69.2917,10.5208 69.9063,10.7344 70.7188,10.7344 C70.9375,10.7344 71.224,10.6875 71.5781,10.5938 C71.9323,10.5 72.2865,10.3594 72.6406,10.1719 L72.6406,10.6875 C72.2865,10.8438 71.9245,10.9609 71.5547,11.0391 C71.1849,11.1172 70.8906,11.1563 70.6719,11.1563 C69.7448,11.1563 69.0469,10.9063 68.5781,10.4063 C68.0677,9.875 67.8125,9.09375 67.8125,8.0625 C67.8125,6.98958 68.0417,6.1875 68.5,5.65625 C68.9792,5.11458 69.6458,4.84375 70.5,4.84375 C71.2813,4.84375 71.875,5.10417 72.2813,5.625 C72.6771,6.16667 72.875,6.875 72.875,7.75 M72.375,7.64063 C72.375,6.79688 72.1823,6.18229 71.7969,5.79688 C71.4844,5.45313 71.0521,5.28125 70.5,5.28125 C69.9063,5.28125 69.4063,5.45833 69,5.8125 C68.625,6.14583 68.401,6.75521 68.3281,7.64063 L72.375,7.64063"/>
</g>

<g fill="none" stroke="#000000" stroke-opacity="1" stroke-width="1" stroke-linecap="square" stroke-linejoin="bevel" transform="matrix(1.99364,0,0,1.99364,41.853,66.7869)"
font-family="sans" font-size="11" font-weight="100" font-style="normal" 
>
</g>

<g fill="none" stroke="#000000" stroke-opacity="1" stroke-width="1" stroke-linecap="square" stroke-linejoin="bevel" transform="matrix(1.99364,0,0,1.99364,41.853,66.7869)"
font-family="Ubuntu" font-size="11" font-weight="400" font-style="normal" 
>
</g>

<g fill="none" stroke="#000000" stroke-opacity="1" stroke-width="1" stroke-linecap="square" stroke-linejoin="bevel" transform="matrix(1.99364,0,0,1.99364,-0.000398728,142.39)"
font-family="Ubuntu" font-size="11" font-weight="400" font-style="normal" 
>
</g>

<g fill="none" stroke="#000000" stroke-opacity="1" stroke-width="1" stroke-linecap="square" stroke-linejoin="bevel" transform="matrix(1.99364,0,0,1.99364,-0.000398728,142.39)"
font-family="Ubuntu" font-size="11" font-weight="400" font-style="normal" 
>
</g>

<g fill="none" stroke="#000000" stroke-opacity="1" stroke-width="1" stroke-linecap="square" stroke-linejoin="bevel" transform="matrix(1.99364,0,0,1.99364,-0.000398728,142.39)"
font-family="Ubuntu" font-size="11" font-weight="400" font-style="normal" 
>
</g>

<g fill="none" stroke="#000000" stroke-opacity="1" stroke-width="1" stroke-linecap="square" stroke-linejoin="round" transform="matrix(1.99364,0,0,1.99364,-0.000398728,142.39)"
font-family="Ubuntu" font-size="11" font-weight="400" font-style="normal" 
>
<ellipse cx="398.54" cy="-30.922" rx="44.3452" ry="17.5"/>
</g>

<g fill="none" stroke="#000000" stroke-opacity="1" stroke-width="1" stroke-linecap="square" stroke-linejoin="bevel" transform="matrix(1.99364,0,0,1.99364,-0.000398728,142.39)"
font-family="Ubuntu" font-size="11" font-weight="400" font-style="normal" 
>
</g>

<g fill="none" stroke="#000000" stroke-opacity="1" stroke-width="1" stroke-linecap="square" stroke-linejoin="bevel" transform="matrix(1.99364,0,0,1.99364,741.62,66.7869)"
font-family="Ubuntu" font-size="11" font-weight="400" font-style="normal" 
>
</g>

<g fill="none" stroke="#000000" stroke-opacity="1" stroke-width="1" stroke-linecap="square" stroke-linejoin="bevel" transform="matrix(1.99364,0,0,1.99364,741.62,66.7869)"
font-family="sans" font-size="11" font-weight="100" font-style="normal" 
>
</g>

<g fill="#000000" fill-opacity="1" stroke="#000000" stroke-opacity="1" stroke-width="1" stroke-linecap="square" stroke-linejoin="round" transform="matrix(1.99364,0,0,1.99364,741.62,66.7869)"
font-family="sans" font-size="11" font-weight="100" font-style="normal" 
>
<path vector-effect="none" fill-rule="nonzero" d="M2.96875,2.98438 L3.53125,2.98438 L0.734375,12.0156 L0.171875,12.0156 L2.96875,2.98438 M5.46875,3.28125 L5.46875,4.98438 L7.5,4.98438 L7.5,5.40625 L5.46875,5.40625 L5.46875,9.01563 C5.46875,9.47396 5.52604,9.79688 5.64063,9.98438 C5.89063,10.3802 6.25,10.5781 6.71875,10.5781 L7.5,10.5781 L7.5,11 L6.73438,11 C6.24479,11 5.82813,10.8568 5.48438,10.5703 C5.14063,10.2839 4.96875,9.76563 4.96875,9.01563 L4.96875,5.40625 L4.25,5.40625 L4.25,4.98438 L4.96875,4.98438 L4.96875,3.28125 L5.46875,3.28125 M9.20313,8.60938 L9.20313,4.98438 L9.6875,4.98438 L9.6875,8.57813 C9.6875,9.35938 9.8125,9.90885 10.0625,10.2266 C10.3125,10.5443 10.6823,10.7031 11.1719,10.7031 C11.7448,10.7031 12.2344,10.5313 12.6406,10.1875 C13.0469,9.84375 13.25,9.24479 13.25,8.39063 L13.25,4.98438 L13.7344,4.98438 L13.7344,11 L13.25,11 L13.25,9.875 C13.0729,10.2396 12.8385,10.5156 12.5469,10.7031 C12.1302,10.9948 11.6667,11.1406 11.1563,11.1406 C10.5625,11.1406 10.0885,10.9375 9.73438,10.5313 C9.38021,10.1354 9.20313,9.49479 9.20313,8.60938 M19.5,5.40625 C19.4167,5.36458 19.3073,5.33333 19.1719,5.3125 C19.0469,5.29167 18.8958,5.28125 18.7188,5.28125 C18.1042,5.28125 17.599,5.50521 17.2031,5.95313 C16.8802,6.31771 16.7188,6.94271 16.7188,7.82813 L16.7188,11 L16.2344,11 L16.2344,4.98438 L16.7188,4.98438 L16.7188,6.10938 C16.8854,5.78646 17.1146,5.51563 17.4063,5.29688 C17.8021,4.99479 18.2708,4.84375 18.8125,4.84375 C18.9583,4.84375 19.0833,4.84896 19.1875,4.85938 C19.2917,4.85938 19.3958,4.86979 19.5,4.89063 L19.5,5.40625 M21.2656,3.28125 L21.2656,4.98438 L23.2969,4.98438 L23.2969,5.40625 L21.2656,5.40625 L21.2656,9.01563 C21.2656,9.47396 21.3229,9.79688 21.4375,9.98438 C21.6875,10.3802 22.0469,10.5781 22.5156,10.5781 L23.2969,10.5781 L23.2969,11 L22.5313,11 C22.0417,11 21.625,10.8568 21.2813,10.5703 C20.9375,10.2839 20.7656,9.76563 20.7656,9.01563 L20.7656,5.40625 L20.0469,5.40625 L20.0469,4.98438 L20.7656,4.98438 L20.7656,3.28125 L21.2656,3.28125 M25.0625,2.64063 L25.5469,2.64063 L25.5469,11 L25.0625,11 L25.0625,2.64063 M32.7969,7.75 L32.7969,8.0625 L28.2344,8.0625 C28.2344,9.02083 28.4219,9.69792 28.7969,10.0938 C29.2135,10.5208 29.8281,10.7344 30.6406,10.7344 C30.8594,10.7344 31.1458,10.6875 31.5,10.5938 C31.8542,10.5 32.2083,10.3594 32.5625,10.1719 L32.5625,10.6875 C32.2083,10.8438 31.8464,10.9609 31.4766,11.0391 C31.1068,11.1172 30.8125,11.1563 30.5938,11.1563 C29.6667,11.1563 28.9688,10.9063 28.5,10.4063 C27.9896,9.875 27.7344,9.09375 27.7344,8.0625 C27.7344,6.98958 27.9635,6.1875 28.4219,5.65625 C28.901,5.11458 29.5677,4.84375 30.4219,4.84375 C31.2031,4.84375 31.7969,5.10417 32.2031,5.625 C32.599,6.16667 32.7969,6.875 32.7969,7.75 M32.2969,7.64063 C32.2969,6.79688 32.1042,6.18229 31.7188,5.79688 C31.4063,5.45313 30.974,5.28125 30.4219,5.28125 C29.8281,5.28125 29.3281,5.45833 28.9219,5.8125 C28.5469,6.14583 28.3229,6.75521 28.25,7.64063 L32.2969,7.64063 M38.2813,5.15625 L38.2813,5.70313 C37.9271,5.50521 37.7083,5.39583 37.625,5.375 C37.375,5.32292 37.0625,5.29167 36.6875,5.28125 C36.125,5.28125 35.6823,5.39063 35.3594,5.60938 C35.1094,5.79688 34.9844,6.11458 34.9844,6.5625 C34.9844,6.875 35.1042,7.11458 35.3438,7.28125 C35.5833,7.46875 35.9323,7.61458 36.3906,7.71875 L36.7344,7.78125 C37.3073,7.90625 37.7396,8.08333 38.0313,8.3125 C38.375,8.58333 38.5521,8.92708 38.5625,9.34375 C38.5625,9.90625 38.3958,10.349 38.0625,10.6719 C37.7083,10.9948 37.1302,11.1563 36.3281,11.1563 C35.8906,11.1563 35.5573,11.125 35.3281,11.0625 C35.0469,10.9896 34.7552,10.8958 34.4531,10.7813 L34.4531,10.1563 C34.8906,10.4063 35.1719,10.5521 35.2969,10.5938 C35.651,10.6875 36.0052,10.7344 36.3594,10.7344 C36.9323,10.7344 37.3594,10.6146 37.6406,10.375 C37.9219,10.125 38.0625,9.80729 38.0625,9.42188 C38.0625,9.08854 37.9688,8.84896 37.7813,8.70313 C37.5104,8.48438 37.0833,8.30729 36.5,8.17188 L36.1563,8.09375 C35.6458,7.96875 35.2604,7.80208 35,7.59375 C34.6667,7.32292 34.5,6.99479 34.5,6.60938 C34.5,5.98438 34.7005,5.53385 35.1016,5.25781 C35.5026,4.98177 35.9948,4.84375 36.5781,4.84375 C37.0781,4.84375 37.4219,4.86979 37.6094,4.92188 C37.8385,4.98438 38.0625,5.0625 38.2813,5.15625 M40.5781,4.98438 L41.0781,4.98438 L41.0781,11 L40.5781,11 L40.5781,4.98438 M40.5781,2.64063 L41.0781,2.64063 L41.0781,3.3125 L40.5781,3.3125 L40.5781,2.64063 M47.9688,6.29688 C48.1563,5.80729 48.4479,5.44271 48.8438,5.20313 C49.2292,4.96354 49.6823,4.84375 50.2031,4.84375 C50.724,4.84375 51.1406,5.02604 51.4531,5.39063 C51.776,5.75521 51.9375,6.41667 51.9375,7.375 L51.9375,11 L51.4531,11 L51.4531,7.40625 C51.4531,6.57292 51.3385,6.01042 51.1094,5.71875 C50.8802,5.42708 50.5729,5.28125 50.1875,5.28125 C49.6354,5.28125 49.151,5.44792 48.7344,5.78125 C48.2656,6.15625 48.0313,6.76042 48.0313,7.59375 L48.0313,11 L47.5469,11 L47.5469,7.40625 C47.5469,6.60417 47.4349,6.04948 47.2109,5.74219 C46.987,5.4349 46.6771,5.28125 46.2813,5.28125 C45.7292,5.28125 45.2448,5.45313 44.8281,5.79688 C44.3594,6.16146 44.125,6.76042 44.125,7.59375 L44.125,11 L43.6406,11 L43.6406,4.98438 L44.125,4.98438 L44.125,6.10938 C44.3021,5.71354 44.5781,5.40104 44.9531,5.17188 C45.3177,4.95313 45.7708,4.84375 46.3125,4.84375 C46.6667,4.84375 47.0052,4.95833 47.3281,5.1875 C47.5781,5.375 47.7917,5.74479 47.9688,6.29688 "/>
</g>

<g fill="none" stroke="#000000" stroke-opacity="1" stroke-width="1" stroke-linecap="square" stroke-linejoin="bevel" transform="matrix(1.99364,0,0,1.99364,741.62,66.7869)"
font-family="sans" font-size="11" font-weight="100" font-style="normal" 
>
</g>

<g fill="none" stroke="#000000" stroke-opacity="1" stroke-width="1" stroke-linecap="square" stroke-linejoin="bevel" transform="matrix(1.99364,0,0,1.99364,741.62,66.7869)"
font-family="Ubuntu" font-size="11" font-weight="400" font-style="normal" 
>
</g>

<g fill="none" stroke="#000000" stroke-opacity="1" stroke-width="1" stroke-linecap="square" stroke-linejoin="bevel" transform="matrix(1.99364,0,0,1.99364,-0.000398728,142.39)"
font-family="Ubuntu" font-size="11" font-weight="400" font-style="normal" 
>
</g>

<g fill="none" stroke="#000000" stroke-opacity="1" stroke-width="1" stroke-linecap="square" stroke-linejoin="bevel" transform="matrix(1.99364,0,0,1.99364,-0.000398728,142.39)"
font-family="Ubuntu" font-size="11" font-weight="400" font-style="normal" 
>
</g>

<g fill="none" stroke="#000000" stroke-opacity="1" stroke-width="1" stroke-linecap="square" stroke-linejoin="bevel" transform="matrix(1.99364,0,0,1.99364,-0.000398728,142.39)"
font-family="Ubuntu" font-size="11" font-weight="400" font-style="normal" 
>
</g>

<g fill="none" stroke="#000000" stroke-opacity="1" stroke-width="1" stroke-linecap="square" stroke-linejoin="round" transform="matrix(1.99364,0,0,1.99364,-0.000398728,142.39)"
font-family="Ubuntu" font-size="11" font-weight="400" font-style="normal" 
>
<path vector-effect="none" fill-rule="evenodd" d="M101.13,-42.911 C108.59,-44.579 116.32,-46.027 123.69,-46.922 C221.64,-58.827 248.13,-61.634 345.69,-46.922 C348.57,-46.487 351.51,-45.924 354.46,-45.27 "/>
</g>

<g fill="none" stroke="#000000" stroke-opacity="1" stroke-width="1" stroke-linecap="square" stroke-linejoin="bevel" transform="matrix(1.99364,0,0,1.99364,-0.000398728,142.39)"
font-family="Ubuntu" font-size="11" font-weight="400" font-style="normal" 
>
</g>

<g fill="none" stroke="#000000" stroke-opacity="1" stroke-width="1" stroke-linecap="square" stroke-linejoin="bevel" transform="matrix(1.99364,0,0,1.99364,378.329,0)"
font-family="Ubuntu" font-size="11" font-weight="400" font-style="normal" 
>
</g>

<g fill="none" stroke="#000000" stroke-opacity="1" stroke-width="1" stroke-linecap="square" stroke-linejoin="bevel" transform="matrix(1.99364,0,0,1.99364,378.329,0)"
font-family="sans" font-size="11" font-weight="100" font-style="normal" 
>
</g>

<g fill="#000000" fill-opacity="1" stroke="#000000" stroke-opacity="1" stroke-width="1" stroke-linecap="square" stroke-linejoin="round" transform="matrix(1.99364,0,0,1.99364,378.329,0)"
font-family="sans" font-size="11" font-weight="100" font-style="normal" 
>
<path vector-effect="none" fill-rule="nonzero" d="M2.96875,2.98438 L3.53125,2.98438 L0.734375,12.0156 L0.171875,12.0156 L2.96875,2.98438 M5.46875,3.28125 L5.46875,4.98438 L7.5,4.98438 L7.5,5.40625 L5.46875,5.40625 L5.46875,9.01563 C5.46875,9.47396 5.52604,9.79688 5.64063,9.98438 C5.89063,10.3802 6.25,10.5781 6.71875,10.5781 L7.5,10.5781 L7.5,11 L6.73438,11 C6.24479,11 5.82813,10.8568 5.48438,10.5703 C5.14063,10.2839 4.96875,9.76563 4.96875,9.01563 L4.96875,5.40625 L4.25,5.40625 L4.25,4.98438 L4.96875,4.98438 L4.96875,3.28125 L5.46875,3.28125 M9.20313,8.60938 L9.20313,4.98438 L9.6875,4.98438 L9.6875,8.57813 C9.6875,9.35938 9.8125,9.90885 10.0625,10.2266 C10.3125,10.5443 10.6823,10.7031 11.1719,10.7031 C11.7448,10.7031 12.2344,10.5313 12.6406,10.1875 C13.0469,9.84375 13.25,9.24479 13.25,8.39063 L13.25,4.98438 L13.7344,4.98438 L13.7344,11 L13.25,11 L13.25,9.875 C13.0729,10.2396 12.8385,10.5156 12.5469,10.7031 C12.1302,10.9948 11.6667,11.1406 11.1563,11.1406 C10.5625,11.1406 10.0885,10.9375 9.73438,10.5313 C9.38021,10.1354 9.20313,9.49479 9.20313,8.60938 M19.5,5.40625 C19.4167,5.36458 19.3073,5.33333 19.1719,5.3125 C19.0469,5.29167 18.8958,5.28125 18.7188,5.28125 C18.1042,5.28125 17.599,5.50521 17.2031,5.95313 C16.8802,6.31771 16.7188,6.94271 16.7188,7.82813 L16.7188,11 L16.2344,11 L16.2344,4.98438 L16.7188,4.98438 L16.7188,6.10938 C16.8854,5.78646 17.1146,5.51563 17.4063,5.29688 C17.8021,4.99479 18.2708,4.84375 18.8125,4.84375 C18.9583,4.84375 19.0833,4.84896 19.1875,4.85938 C19.2917,4.85938 19.3958,4.86979 19.5,4.89063 L19.5,5.40625 M21.2656,3.28125 L21.2656,4.98438 L23.2969,4.98438 L23.2969,5.40625 L21.2656,5.40625 L21.2656,9.01563 C21.2656,9.47396 21.3229,9.79688 21.4375,9.98438 C21.6875,10.3802 22.0469,10.5781 22.5156,10.5781 L23.2969,10.5781 L23.2969,11 L22.5313,11 C22.0417,11 21.625,10.8568 21.2813,10.5703 C20.9375,10.2839 20.7656,9.76563 20.7656,9.01563 L20.7656,5.40625 L20.0469,5.40625 L20.0469,4.98438 L20.7656,4.98438 L20.7656,3.28125 L21.2656,3.28125 M25.0625,2.64063 L25.5469,2.64063 L25.5469,11 L25.0625,11 L25.0625,2.64063 M32.7969,7.75 L32.7969,8.0625 L28.2344,8.0625 C28.2344,9.02083 28.4219,9.69792 28.7969,10.0938 C29.2135,10.5208 29.8281,10.7344 30.6406,10.7344 C30.8594,10.7344 31.1458,10.6875 31.5,10.5938 C31.8542,10.5 32.2083,10.3594 32.5625,10.1719 L32.5625,10.6875 C32.2083,10.8438 31.8464,10.9609 31.4766,11.0391 C31.1068,11.1172 30.8125,11.1563 30.5938,11.1563 C29.6667,11.1563 28.9688,10.9063 28.5,10.4063 C27.9896,9.875 27.7344,9.09375 27.7344,8.0625 C27.7344,6.98958 27.9635,6.1875 28.4219,5.65625 C28.901,5.11458 29.5677,4.84375 30.4219,4.84375 C31.2031,4.84375 31.7969,5.10417 32.2031,5.625 C32.599,6.16667 32.7969,6.875 32.7969,7.75 M32.2969,7.64063 C32.2969,6.79688 32.1042,6.18229 31.7188,5.79688 C31.4063,5.45313 30.974,5.28125 30.4219,5.28125 C29.8281,5.28125 29.3281,5.45833 28.9219,5.8125 C28.5469,6.14583 28.3229,6.75521 28.25,7.64063 L32.2969,7.64063 M35.2656,10.5625 L37.0313,10.5625 L37.0313,3.46875 L34.8281,4.35938 L34.8281,3.85938 L37.0156,2.98438 L37.5625,2.98438 L37.5625,10.5625 L39.3438,10.5625 L39.3438,11 L35.2656,11 L35.2656,10.5625 M43.5781,2.98438 L44.1406,2.98438 L41.3438,12.0156 L40.7813,12.0156 L43.5781,2.98438 M49.6719,5.28125 L49.6719,5.79688 C49.3802,5.61979 49.1354,5.5 48.9375,5.4375 C48.6042,5.33333 48.2865,5.28125 47.9844,5.28125 C47.1198,5.28125 46.5,5.5026 46.125,5.94531 C45.75,6.38802 45.5625,7.07292 45.5625,8 C45.5625,8.9375 45.75,9.6276 46.125,10.0703 C46.5,10.513 47.1198,10.7344 47.9844,10.7344 C48.276,10.7344 48.5573,10.6927 48.8281,10.6094 C49.1198,10.5365 49.401,10.4219 49.6719,10.2656 L49.6719,10.7656 C49.401,10.901 49.1198,11 48.8281,11.0625 C48.526,11.125 48.2292,11.1563 47.9375,11.1563 C47.0625,11.1563 46.3646,10.9167 45.8438,10.4375 C45.3229,9.95833 45.0625,9.14323 45.0625,7.99219 C45.0625,6.84115 45.3229,6.02604 45.8438,5.54688 C46.3646,5.07813 47.0625,4.84375 47.9375,4.84375 C48.2292,4.84375 48.5365,4.88542 48.8594,4.96875 C49.1823,5.04167 49.4531,5.14583 49.6719,5.28125 M55.9375,6.29688 C56.125,5.80729 56.4167,5.44271 56.8125,5.20313 C57.1979,4.96354 57.651,4.84375 58.1719,4.84375 C58.6927,4.84375 59.1094,5.02604 59.4219,5.39063 C59.7448,5.75521 59.9063,6.41667 59.9063,7.375 L59.9063,11 L59.4219,11 L59.4219,7.40625 C59.4219,6.57292 59.3073,6.01042 59.0781,5.71875 C58.849,5.42708 58.5417,5.28125 58.1563,5.28125 C57.6042,5.28125 57.1198,5.44792 56.7031,5.78125 C56.2344,6.15625 56,6.76042 56,7.59375 L56,11 L55.5156,11 L55.5156,7.40625 C55.5156,6.60417 55.4036,6.04948 55.1797,5.74219 C54.9557,5.4349 54.6458,5.28125 54.25,5.28125 C53.6979,5.28125 53.2135,5.45313 52.7969,5.79688 C52.3281,6.16146 52.0938,6.76042 52.0938,7.59375 L52.0938,11 L51.6094,11 L51.6094,4.98438 L52.0938,4.98438 L52.0938,6.10938 C52.2708,5.71354 52.5469,5.40104 52.9219,5.17188 C53.2865,4.95313 53.7396,4.84375 54.2813,4.84375 C54.6354,4.84375 54.974,4.95833 55.2969,5.1875 C55.5469,5.375 55.7604,5.74479 55.9375,6.29688 M66.3125,6.35938 L66.3125,2.64063 L66.7813,2.64063 L66.7813,11 L66.3125,11 L66.3125,9.64063 C66.0833,10.1615 65.8333,10.5156 65.5625,10.7031 C65.1667,11.0052 64.7865,11.1563 64.4219,11.1563 C63.7135,11.1563 63.1224,10.8672 62.6484,10.2891 C62.1745,9.71094 61.9375,8.94792 61.9375,8 C61.9375,7.05208 62.1745,6.28906 62.6484,5.71094 C63.1224,5.13281 63.7135,4.84375 64.4219,4.84375 C64.7865,4.84375 65.1667,4.98958 65.5625,5.28125 C65.8333,5.47917 66.0833,5.83854 66.3125,6.35938 M63.0781,5.90625 C62.6615,6.32292 62.4531,7.02083 62.4531,8 C62.4531,8.97917 62.6615,9.67708 63.0781,10.0938 C63.4948,10.5104 63.9323,10.7188 64.3906,10.7188 C64.8385,10.7188 65.2708,10.5104 65.6875,10.0938 C66.0938,9.67708 66.2969,8.97917 66.2969,8 C66.2969,7.02083 66.0938,6.32292 65.6875,5.90625 C65.2708,5.48958 64.8385,5.28125 64.3906,5.28125 C63.9323,5.28125 63.4948,5.48958 63.0781,5.90625 M73.6406,13.1719 L73.6406,13.5938 L67.9219,13.5938 L67.9219,13.1719 L73.6406,13.1719 M74.2344,4.98438 L74.75,4.98438 L76.7813,10.4531 L78.8281,4.98438 L79.3438,4.98438 L77.1094,11 L76.4688,11 L74.2344,4.98438 M85.9688,7.75 L85.9688,8.0625 L81.4063,8.0625 C81.4063,9.02083 81.5938,9.69792 81.9688,10.0938 C82.3854,10.5208 83,10.7344 83.8125,10.7344 C84.0313,10.7344 84.3177,10.6875 84.6719,10.5938 C85.026,10.5 85.3802,10.3594 85.7344,10.1719 L85.7344,10.6875 C85.3802,10.8438 85.0182,10.9609 84.6484,11.0391 C84.2786,11.1172 83.9844,11.1563 83.7656,11.1563 C82.8385,11.1563 82.1406,10.9063 81.6719,10.4063 C81.1615,9.875 80.9063,9.09375 80.9063,8.0625 C80.9063,6.98958 81.1354,6.1875 81.5938,5.65625 C82.0729,5.11458 82.7396,4.84375 83.5938,4.84375 C84.375,4.84375 84.9688,5.10417 85.375,5.625 C85.7708,6.16667 85.9688,6.875 85.9688,7.75 M85.4688,7.64063 C85.4688,6.79688 85.276,6.18229 84.8906,5.79688 C84.5781,5.45313 84.1458,5.28125 83.5938,5.28125 C83,5.28125 82.5,5.45833 82.0938,5.8125 C81.7188,6.14583 81.4948,6.75521 81.4219,7.64063 L85.4688,7.64063 M88.0469,2.64063 L88.5313,2.64063 L88.5313,11 L88.0469,11 L88.0469,2.64063"/>
</g>

<g fill="none" stroke="#000000" stroke-opacity="1" stroke-width="1" stroke-linecap="square" stroke-linejoin="bevel" transform="matrix(1.99364,0,0,1.99364,378.329,0)"
font-family="sans" font-size="11" font-weight="100" font-style="normal" 
>
</g>

<g fill="none" stroke="#000000" stroke-opacity="1" stroke-width="1" stroke-linecap="square" stroke-linejoin="bevel" transform="matrix(1.99364,0,0,1.99364,378.329,0)"
font-family="Ubuntu" font-size="11" font-weight="400" font-style="normal" 
>
</g>

<g fill="none" stroke="#000000" stroke-opacity="1" stroke-width="1" stroke-linecap="square" stroke-linejoin="bevel" transform="matrix(1.99364,0,0,1.99364,-0.000398728,142.39)"
font-family="Ubuntu" font-size="11" font-weight="400" font-style="normal" 
>
</g>

<g fill="#000000" fill-opacity="1" stroke="#000000" stroke-opacity="1" stroke-width="1" stroke-linecap="square" stroke-linejoin="round" transform="matrix(1.99364,0,0,1.99364,-0.000398728,142.39)"
font-family="Ubuntu" font-size="11" font-weight="400" font-style="normal" 
>
<path vector-effect="none" fill-rule="evenodd" d="M354.46,-45.27 L353.577,-41.7875 L364.41,-42.748 L355.343,-48.7525 L354.46,-45.27"/>
</g>

<g fill="none" stroke="#000000" stroke-opacity="1" stroke-width="1" stroke-linecap="square" stroke-linejoin="bevel" transform="matrix(1.99364,0,0,1.99364,-0.000398728,142.39)"
font-family="Ubuntu" font-size="11" font-weight="400" font-style="normal" 
>
</g>

<g fill="none" stroke="#000000" stroke-opacity="1" stroke-width="1" stroke-linecap="square" stroke-linejoin="bevel" transform="matrix(1.99364,0,0,1.99364,-0.000398728,142.39)"
font-family="Ubuntu" font-size="11" font-weight="400" font-style="normal" 
>
</g>

<g fill="none" stroke="#000000" stroke-opacity="1" stroke-width="1" stroke-linecap="square" stroke-linejoin="bevel" transform="matrix(1.99364,0,0,1.99364,-0.000398728,142.39)"
font-family="Ubuntu" font-size="11" font-weight="400" font-style="normal" 
>
</g>

<g fill="none" stroke="#000000" stroke-opacity="1" stroke-width="1" stroke-linecap="square" stroke-linejoin="bevel" transform="matrix(1.99364,0,0,1.99364,-0.000398728,142.39)"
font-family="Ubuntu" font-size="11" font-weight="400" font-style="normal" 
>
</g>

<g fill="none" stroke="#000000" stroke-opacity="1" stroke-width="1" stroke-linecap="square" stroke-linejoin="round" transform="matrix(1.99364,0,0,1.99364,-0.000398728,142.39)"
font-family="Ubuntu" font-size="11" font-weight="400" font-style="normal" 
>
<path vector-effect="none" fill-rule="evenodd" d="M353.47,-30.922 C295.63,-30.922 193.53,-30.922 126.03,-30.922 "/>
</g>

<g fill="none" stroke="#000000" stroke-opacity="1" stroke-width="1" stroke-linecap="square" stroke-linejoin="bevel" transform="matrix(1.99364,0,0,1.99364,-0.000398728,142.39)"
font-family="Ubuntu" font-size="11" font-weight="400" font-style="normal" 
>
</g>

<g fill="none" stroke="#000000" stroke-opacity="1" stroke-width="1" stroke-linecap="square" stroke-linejoin="bevel" transform="matrix(1.99364,0,0,1.99364,240.005,51.8346)"
font-family="Ubuntu" font-size="11" font-weight="400" font-style="normal" 
>
</g>

<g fill="none" stroke="#000000" stroke-opacity="1" stroke-width="1" stroke-linecap="square" stroke-linejoin="bevel" transform="matrix(1.99364,0,0,1.99364,240.005,51.8346)"
font-family="sans" font-size="11" font-weight="100" font-style="normal" 
>
</g>

<g fill="#000000" fill-opacity="1" stroke="#000000" stroke-opacity="1" stroke-width="1" stroke-linecap="square" stroke-linejoin="round" transform="matrix(1.99364,0,0,1.99364,240.005,51.8346)"
font-family="sans" font-size="11" font-weight="100" font-style="normal" 
>
<path vector-effect="none" fill-rule="nonzero" d="M2.96875,2.98438 L3.53125,2.98438 L0.734375,12.0156 L0.171875,12.0156 L2.96875,2.98438 M5.46875,3.28125 L5.46875,4.98438 L7.5,4.98438 L7.5,5.40625 L5.46875,5.40625 L5.46875,9.01563 C5.46875,9.47396 5.52604,9.79688 5.64063,9.98438 C5.89063,10.3802 6.25,10.5781 6.71875,10.5781 L7.5,10.5781 L7.5,11 L6.73438,11 C6.24479,11 5.82813,10.8568 5.48438,10.5703 C5.14063,10.2839 4.96875,9.76563 4.96875,9.01563 L4.96875,5.40625 L4.25,5.40625 L4.25,4.98438 L4.96875,4.98438 L4.96875,3.28125 L5.46875,3.28125 M9.20313,8.60938 L9.20313,4.98438 L9.6875,4.98438 L9.6875,8.57813 C9.6875,9.35938 9.8125,9.90885 10.0625,10.2266 C10.3125,10.5443 10.6823,10.7031 11.1719,10.7031 C11.7448,10.7031 12.2344,10.5313 12.6406,10.1875 C13.0469,9.84375 13.25,9.24479 13.25,8.39063 L13.25,4.98438 L13.7344,4.98438 L13.7344,11 L13.25,11 L13.25,9.875 C13.0729,10.2396 12.8385,10.5156 12.5469,10.7031 C12.1302,10.9948 11.6667,11.1406 11.1563,11.1406 C10.5625,11.1406 10.0885,10.9375 9.73438,10.5313 C9.38021,10.1354 9.20313,9.49479 9.20313,8.60938 M19.5,5.40625 C19.4167,5.36458 19.3073,5.33333 19.1719,5.3125 C19.0469,5.29167 18.8958,5.28125 18.7188,5.28125 C18.1042,5.28125 17.599,5.50521 17.2031,5.95313 C16.8802,6.31771 16.7188,6.94271 16.7188,7.82813 L16.7188,11 L16.2344,11 L16.2344,4.98438 L16.7188,4.98438 L16.7188,6.10938 C16.8854,5.78646 17.1146,5.51563 17.4063,5.29688 C17.8021,4.99479 18.2708,4.84375 18.8125,4.84375 C18.9583,4.84375 19.0833,4.84896 19.1875,4.85938 C19.2917,4.85938 19.3958,4.86979 19.5,4.89063 L19.5,5.40625 M21.2656,3.28125 L21.2656,4.98438 L23.2969,4.98438 L23.2969,5.40625 L21.2656,5.40625 L21.2656,9.01563 C21.2656,9.47396 21.3229,9.79688 21.4375,9.98438 C21.6875,10.3802 22.0469,10.5781 22.5156,10.5781 L23.2969,10.5781 L23.2969,11 L22.5313,11 C22.0417,11 21.625,10.8568 21.2813,10.5703 C20.9375,10.2839 20.7656,9.76563 20.7656,9.01563 L20.7656,5.40625 L20.0469,5.40625 L20.0469,4.98438 L20.7656,4.98438 L20.7656,3.28125 L21.2656,3.28125 M25.0625,2.64063 L25.5469,2.64063 L25.5469,11 L25.0625,11 L25.0625,2.64063 M32.7969,7.75 L32.7969,8.0625 L28.2344,8.0625 C28.2344,9.02083 28.4219,9.69792 28.7969,10.0938 C29.2135,10.5208 29.8281,10.7344 30.6406,10.7344 C30.8594,10.7344 31.1458,10.6875 31.5,10.5938 C31.8542,10.5 32.2083,10.3594 32.5625,10.1719 L32.5625,10.6875 C32.2083,10.8438 31.8464,10.9609 31.4766,11.0391 C31.1068,11.1172 30.8125,11.1563 30.5938,11.1563 C29.6667,11.1563 28.9688,10.9063 28.5,10.4063 C27.9896,9.875 27.7344,9.09375 27.7344,8.0625 C27.7344,6.98958 27.9635,6.1875 28.4219,5.65625 C28.901,5.11458 29.5677,4.84375 30.4219,4.84375 C31.2031,4.84375 31.7969,5.10417 32.2031,5.625 C32.599,6.16667 32.7969,6.875 32.7969,7.75 M32.2969,7.64063 C32.2969,6.79688 32.1042,6.18229 31.7188,5.79688 C31.4063,5.45313 30.974,5.28125 30.4219,5.28125 C29.8281,5.28125 29.3281,5.45833 28.9219,5.8125 C28.5469,6.14583 28.3229,6.75521 28.25,7.64063 L32.2969,7.64063 M35.2656,10.5625 L37.0313,10.5625 L37.0313,3.46875 L34.8281,4.35938 L34.8281,3.85938 L37.0156,2.98438 L37.5625,2.98438 L37.5625,10.5625 L39.3438,10.5625 L39.3438,11 L35.2656,11 L35.2656,10.5625 M43.5781,2.98438 L44.1406,2.98438 L41.3438,12.0156 L40.7813,12.0156 L43.5781,2.98438 M48.8281,5.40625 C48.7448,5.36458 48.6354,5.33333 48.5,5.3125 C48.375,5.29167 48.224,5.28125 48.0469,5.28125 C47.4323,5.28125 46.9271,5.50521 46.5313,5.95313 C46.2083,6.31771 46.0469,6.94271 46.0469,7.82813 L46.0469,11 L45.5625,11 L45.5625,4.98438 L46.0469,4.98438 L46.0469,6.10938 C46.2135,5.78646 46.4427,5.51563 46.7344,5.29688 C47.1302,4.99479 47.599,4.84375 48.1406,4.84375 C48.2865,4.84375 48.4115,4.84896 48.5156,4.85938 C48.6198,4.85938 48.724,4.86979 48.8281,4.89063 L48.8281,5.40625 M53.6563,6.01563 C53.3021,5.52604 52.8177,5.28125 52.2031,5.28125 C51.5885,5.28125 51.1042,5.52604 50.75,6.01563 C50.3958,6.49479 50.2188,7.15104 50.2188,7.98438 C50.2188,8.83854 50.3958,9.51042 50.75,10 C51.1042,10.4896 51.5885,10.7344 52.2031,10.7344 C52.8177,10.7344 53.3021,10.4896 53.6563,10 C54.0104,9.5 54.1875,8.82813 54.1875,7.98438 C54.1875,7.16146 54.0104,6.50521 53.6563,6.01563 M52.2031,4.84375 C52.9635,4.84375 53.5677,5.13021 54.0156,5.70313 C54.4635,6.27604 54.6875,7.03646 54.6875,7.98438 C54.6875,8.97396 54.4635,9.75521 54.0156,10.3281 C53.5677,10.901 52.9635,11.1875 52.2031,11.1875 C51.4219,11.1875 50.8073,10.901 50.3594,10.3281 C49.9219,9.75521 49.7031,8.97396 49.7031,7.98438 C49.7031,7.02604 49.9271,6.26302 50.375,5.69531 C50.8229,5.1276 51.4323,4.84375 52.2031,4.84375 M57.3125,3.28125 L57.3125,4.98438 L59.3438,4.98438 L59.3438,5.40625 L57.3125,5.40625 L57.3125,9.01563 C57.3125,9.47396 57.3698,9.79688 57.4844,9.98438 C57.7344,10.3802 58.0938,10.5781 58.5625,10.5781 L59.3438,10.5781 L59.3438,11 L58.5781,11 C58.0885,11 57.6719,10.8568 57.3281,10.5703 C56.9844,10.2839 56.8125,9.76563 56.8125,9.01563 L56.8125,5.40625 L56.0938,5.40625 L56.0938,4.98438 L56.8125,4.98438 L56.8125,3.28125 L57.3125,3.28125 M63.5156,7.60938 C62.7135,7.60938 62.138,7.75 61.7891,8.03125 C61.4401,8.3125 61.2656,8.72396 61.2656,9.26563 C61.2656,9.79688 61.4115,10.1745 61.7031,10.3984 C61.9948,10.6224 62.3385,10.7344 62.7344,10.7344 C63.4844,10.7344 64.026,10.4167 64.3594,9.78125 C64.6927,9.13542 64.8594,8.53125 64.8594,7.96875 L64.8594,7.60938 L63.5156,7.60938 M65.3594,7.5625 L65.3594,11 L64.8594,11 L64.8594,9.35938 C64.5885,10.1615 64.224,10.6719 63.7656,10.8906 C63.4115,11.0677 63.0521,11.1563 62.6875,11.1563 C62.0938,11.1563 61.625,10.9948 61.2813,10.6719 C60.9375,10.349 60.7656,9.8776 60.7656,9.25781 C60.7656,8.63802 60.9896,8.14063 61.4375,7.76563 C61.8854,7.39063 62.6146,7.20313 63.625,7.20313 L64.8594,7.20313 L64.8594,7.10938 C64.8594,6.57813 64.7031,6.14063 64.3906,5.79688 C64.099,5.45313 63.6042,5.28125 62.9063,5.28125 C62.5625,5.28125 62.2135,5.34375 61.8594,5.46875 C61.6302,5.55208 61.3281,5.71875 60.9531,5.96875 L60.9531,5.4375 C61.276,5.23958 61.5781,5.09896 61.8594,5.01563 C62.2552,4.90104 62.6354,4.84375 63,4.84375 C63.7188,4.84375 64.3073,5.05729 64.7656,5.48438 C65.1615,5.84896 65.3594,6.54167 65.3594,7.5625 M68.3594,3.28125 L68.3594,4.98438 L70.3906,4.98438 L70.3906,5.40625 L68.3594,5.40625 L68.3594,9.01563 C68.3594,9.47396 68.4167,9.79688 68.5313,9.98438 C68.7813,10.3802 69.1406,10.5781 69.6094,10.5781 L70.3906,10.5781 L70.3906,11 L69.625,11 C69.1354,11 68.7188,10.8568 68.375,10.5703 C68.0313,10.2839 67.8594,9.76563 67.8594,9.01563 L67.8594,5.40625 L67.1406,5.40625 L67.1406,4.98438 L67.8594,4.98438 L67.8594,3.28125 L68.3594,3.28125 M76.8438,7.75 L76.8438,8.0625 L72.2813,8.0625 C72.2813,9.02083 72.4688,9.69792 72.8438,10.0938 C73.2604,10.5208 73.875,10.7344 74.6875,10.7344 C74.9063,10.7344 75.1927,10.6875 75.5469,10.5938 C75.901,10.5 76.2552,10.3594 76.6094,10.1719 L76.6094,10.6875 C76.2552,10.8438 75.8932,10.9609 75.5234,11.0391 C75.1536,11.1172 74.8594,11.1563 74.6406,11.1563 C73.7135,11.1563 73.0156,10.9063 72.5469,10.4063 C72.0365,9.875 71.7813,9.09375 71.7813,8.0625 C71.7813,6.98958 72.0104,6.1875 72.4688,5.65625 C72.9479,5.11458 73.6146,4.84375 74.4688,4.84375 C75.25,4.84375 75.8438,5.10417 76.25,5.625 C76.6458,6.16667 76.8438,6.875 76.8438,7.75 M76.3438,7.64063 C76.3438,6.79688 76.151,6.18229 75.7656,5.79688 C75.4531,5.45313 75.0208,5.28125 74.4688,5.28125 C73.875,5.28125 73.375,5.45833 72.9688,5.8125 C72.5938,6.14583 72.3698,6.75521 72.2969,7.64063 L76.3438,7.64063 M83.2813,13.1719 L83.2813,13.5938 L77.5625,13.5938 L77.5625,13.1719 L83.2813,13.1719 M86.8281,7.60938 C86.026,7.60938 85.4505,7.75 85.1016,8.03125 C84.7526,8.3125 84.5781,8.72396 84.5781,9.26563 C84.5781,9.79688 84.724,10.1745 85.0156,10.3984 C85.3073,10.6224 85.651,10.7344 86.0469,10.7344 C86.7969,10.7344 87.3385,10.4167 87.6719,9.78125 C88.0052,9.13542 88.1719,8.53125 88.1719,7.96875 L88.1719,7.60938 L86.8281,7.60938 M88.6719,7.5625 L88.6719,11 L88.1719,11 L88.1719,9.35938 C87.901,10.1615 87.5365,10.6719 87.0781,10.8906 C86.724,11.0677 86.3646,11.1563 86,11.1563 C85.4063,11.1563 84.9375,10.9948 84.5938,10.6719 C84.25,10.349 84.0781,9.8776 84.0781,9.25781 C84.0781,8.63802 84.3021,8.14063 84.75,7.76563 C85.1979,7.39063 85.9271,7.20313 86.9375,7.20313 L88.1719,7.20313 L88.1719,7.10938 C88.1719,6.57813 88.0156,6.14063 87.7031,5.79688 C87.4115,5.45313 86.9167,5.28125 86.2188,5.28125 C85.875,5.28125 85.526,5.34375 85.1719,5.46875 C84.9427,5.55208 84.6406,5.71875 84.2656,5.96875 L84.2656,5.4375 C84.5885,5.23958 84.8906,5.09896 85.1719,5.01563 C85.5677,4.90104 85.9479,4.84375 86.3125,4.84375 C87.0313,4.84375 87.6198,5.05729 88.0781,5.48438 C88.474,5.84896 88.6719,6.54167 88.6719,7.5625 M94.875,10.0938 C95.2917,9.67708 95.5,8.97917 95.5,8 C95.5,7.02083 95.2917,6.32292 94.875,5.90625 C94.4583,5.48958 94.0208,5.28125 93.5625,5.28125 C93.1146,5.28125 92.6823,5.48958 92.2656,5.90625 C91.8594,6.32292 91.6563,7.02083 91.6563,8 C91.6563,8.97917 91.8594,9.67708 92.2656,10.0938 C92.6823,10.5104 93.1146,10.7188 93.5625,10.7188 C94.0208,10.7188 94.4583,10.5104 94.875,10.0938 M91.6406,6.35938 C91.8698,5.83854 92.1146,5.47917 92.375,5.28125 C92.7813,4.98958 93.1667,4.84375 93.5313,4.84375 C94.2396,4.84375 94.8307,5.13281 95.3047,5.71094 C95.7786,6.28906 96.0156,7.05208 96.0156,8 C96.0156,8.94792 95.7786,9.71094 95.3047,10.2891 C94.8307,10.8672 94.2396,11.1563 93.5313,11.1563 C93.1667,11.1563 92.7813,11.0052 92.375,10.7031 C92.1146,10.5156 91.8698,10.1615 91.6406,9.64063 L91.6406,11 L91.1563,11 L91.1563,2.64063 L91.6406,2.64063 L91.6406,6.35938 M101.531,5.15625 L101.531,5.70313 C101.177,5.50521 100.958,5.39583 100.875,5.375 C100.625,5.32292 100.313,5.29167 99.9375,5.28125 C99.375,5.28125 98.9323,5.39063 98.6094,5.60938 C98.3594,5.79688 98.2344,6.11458 98.2344,6.5625 C98.2344,6.875 98.3542,7.11458 98.5938,7.28125 C98.8333,7.46875 99.1823,7.61458 99.6406,7.71875 L99.9844,7.78125 C100.557,7.90625 100.99,8.08333 101.281,8.3125 C101.625,8.58333 101.802,8.92708 101.813,9.34375 C101.813,9.90625 101.646,10.349 101.313,10.6719 C100.958,10.9948 100.38,11.1563 99.5781,11.1563 C99.1406,11.1563 98.8073,11.125 98.5781,11.0625 C98.2969,10.9896 98.0052,10.8958 97.7031,10.7813 L97.7031,10.1563 C98.1406,10.4063 98.4219,10.5521 98.5469,10.5938 C98.901,10.6875 99.2552,10.7344 99.6094,10.7344 C100.182,10.7344 100.609,10.6146 100.891,10.375 C101.172,10.125 101.313,9.80729 101.313,9.42188 C101.313,9.08854 101.219,8.84896 101.031,8.70313 C100.76,8.48438 100.333,8.30729 99.75,8.17188 L99.4063,8.09375 C98.8958,7.96875 98.5104,7.80208 98.25,7.59375 C97.9167,7.32292 97.75,6.99479 97.75,6.60938 C97.75,5.98438 97.9505,5.53385 98.3516,5.25781 C98.7526,4.98177 99.2448,4.84375 99.8281,4.84375 C100.328,4.84375 100.672,4.86979 100.859,4.92188 C101.089,4.98438 101.313,5.0625 101.531,5.15625 M107.422,6.01563 C107.068,5.52604 106.583,5.28125 105.969,5.28125 C105.354,5.28125 104.87,5.52604 104.516,6.01563 C104.161,6.49479 103.984,7.15104 103.984,7.98438 C103.984,8.83854 104.161,9.51042 104.516,10 C104.87,10.4896 105.354,10.7344 105.969,10.7344 C106.583,10.7344 107.068,10.4896 107.422,10 C107.776,9.5 107.953,8.82813 107.953,7.98438 C107.953,7.16146 107.776,6.50521 107.422,6.01563 M105.969,4.84375 C106.729,4.84375 107.333,5.13021 107.781,5.70313 C108.229,6.27604 108.453,7.03646 108.453,7.98438 C108.453,8.97396 108.229,9.75521 107.781,10.3281 C107.333,10.901 106.729,11.1875 105.969,11.1875 C105.188,11.1875 104.573,10.901 104.125,10.3281 C103.688,9.75521 103.469,8.97396 103.469,7.98438 C103.469,7.02604 103.693,6.26302 104.141,5.69531 C104.589,5.1276 105.198,4.84375 105.969,4.84375 M110.563,2.64063 L111.047,2.64063 L111.047,11 L110.563,11 L110.563,2.64063 M113.547,8.60938 L113.547,4.98438 L114.031,4.98438 L114.031,8.57813 C114.031,9.35938 114.156,9.90885 114.406,10.2266 C114.656,10.5443 115.026,10.7031 115.516,10.7031 C116.089,10.7031 116.578,10.5313 116.984,10.1875 C117.391,9.84375 117.594,9.24479 117.594,8.39063 L117.594,4.98438 L118.078,4.98438 L118.078,11 L117.594,11 L117.594,9.875 C117.417,10.2396 117.182,10.5156 116.891,10.7031 C116.474,10.9948 116.01,11.1406 115.5,11.1406 C114.906,11.1406 114.432,10.9375 114.078,10.5313 C113.724,10.1354 113.547,9.49479 113.547,8.60938 M121.094,3.28125 L121.094,4.98438 L123.125,4.98438 L123.125,5.40625 L121.094,5.40625 L121.094,9.01563 C121.094,9.47396 121.151,9.79688 121.266,9.98438 C121.516,10.3802 121.875,10.5781 122.344,10.5781 L123.125,10.5781 L123.125,11 L122.359,11 C121.87,11 121.453,10.8568 121.109,10.5703 C120.766,10.2839 120.594,9.76563 120.594,9.01563 L120.594,5.40625 L119.875,5.40625 L119.875,4.98438 L120.594,4.98438 L120.594,3.28125 L121.094,3.28125 M129.578,7.75 L129.578,8.0625 L125.016,8.0625 C125.016,9.02083 125.203,9.69792 125.578,10.0938 C125.995,10.5208 126.609,10.7344 127.422,10.7344 C127.641,10.7344 127.927,10.6875 128.281,10.5938 C128.635,10.5 128.99,10.3594 129.344,10.1719 L129.344,10.6875 C128.99,10.8438 128.628,10.9609 128.258,11.0391 C127.888,11.1172 127.594,11.1563 127.375,11.1563 C126.448,11.1563 125.75,10.9063 125.281,10.4063 C124.771,9.875 124.516,9.09375 124.516,8.0625 C124.516,6.98958 124.745,6.1875 125.203,5.65625 C125.682,5.11458 126.349,4.84375 127.203,4.84375 C127.984,4.84375 128.578,5.10417 128.984,5.625 C129.38,6.16667 129.578,6.875 129.578,7.75 M129.078,7.64063 C129.078,6.79688 128.885,6.18229 128.5,5.79688 C128.188,5.45313 127.755,5.28125 127.203,5.28125 C126.609,5.28125 126.109,5.45833 125.703,5.8125 C125.328,6.14583 125.104,6.75521 125.031,7.64063 L129.078,7.64063 M133.375,2.98438 L133.938,2.98438 L131.141,12.0156 L130.578,12.0156 L133.375,2.98438 M139.719,13.1719 L139.719,13.5938 L134,13.5938 L134,13.1719 L139.719,13.1719 M143.266,7.60938 C142.464,7.60938 141.888,7.75 141.539,8.03125 C141.19,8.3125 141.016,8.72396 141.016,9.26563 C141.016,9.79688 141.161,10.1745 141.453,10.3984 C141.745,10.6224 142.089,10.7344 142.484,10.7344 C143.234,10.7344 143.776,10.4167 144.109,9.78125 C144.443,9.13542 144.609,8.53125 144.609,7.96875 L144.609,7.60938 L143.266,7.60938 M145.109,7.5625 L145.109,11 L144.609,11 L144.609,9.35938 C144.339,10.1615 143.974,10.6719 143.516,10.8906 C143.161,11.0677 142.802,11.1563 142.438,11.1563 C141.844,11.1563 141.375,10.9948 141.031,10.6719 C140.688,10.349 140.516,9.8776 140.516,9.25781 C140.516,8.63802 140.74,8.14063 141.188,7.76563 C141.635,7.39063 142.365,7.20313 143.375,7.20313 L144.609,7.20313 L144.609,7.10938 C144.609,6.57813 144.453,6.14063 144.141,5.79688 C143.849,5.45313 143.354,5.28125 142.656,5.28125 C142.313,5.28125 141.964,5.34375 141.609,5.46875 C141.38,5.55208 141.078,5.71875 140.703,5.96875 L140.703,5.4375 C141.026,5.23958 141.328,5.09896 141.609,5.01563 C142.005,4.90104 142.385,4.84375 142.75,4.84375 C143.469,4.84375 144.057,5.05729 144.516,5.48438 C144.911,5.84896 145.109,6.54167 145.109,7.5625 M151.703,5.28125 L151.703,5.79688 C151.411,5.61979 151.167,5.5 150.969,5.4375 C150.635,5.33333 150.318,5.28125 150.016,5.28125 C149.151,5.28125 148.531,5.5026 148.156,5.94531 C147.781,6.38802 147.594,7.07292 147.594,8 C147.594,8.9375 147.781,9.6276 148.156,10.0703 C148.531,10.513 149.151,10.7344 150.016,10.7344 C150.307,10.7344 150.589,10.6927 150.859,10.6094 C151.151,10.5365 151.432,10.4219 151.703,10.2656 L151.703,10.7656 C151.432,10.901 151.151,11 150.859,11.0625 C150.557,11.125 150.26,11.1563 149.969,11.1563 C149.094,11.1563 148.396,10.9167 147.875,10.4375 C147.354,9.95833 147.094,9.14323 147.094,7.99219 C147.094,6.84115 147.354,6.02604 147.875,5.54688 C148.396,5.07813 149.094,4.84375 149.969,4.84375 C150.26,4.84375 150.568,4.88542 150.891,4.96875 C151.214,5.04167 151.484,5.14583 151.703,5.28125 M154.156,3.28125 L154.156,4.98438 L156.188,4.98438 L156.188,5.40625 L154.156,5.40625 L154.156,9.01563 C154.156,9.47396 154.214,9.79688 154.328,9.98438 C154.578,10.3802 154.938,10.5781 155.406,10.5781 L156.188,10.5781 L156.188,11 L155.422,11 C154.932,11 154.516,10.8568 154.172,10.5703 C153.828,10.2839 153.656,9.76563 153.656,9.01563 L153.656,5.40625 L152.938,5.40625 L152.938,4.98438 L153.656,4.98438 L153.656,3.28125 L154.156,3.28125 M157.938,4.98438 L158.438,4.98438 L158.438,11 L157.938,11 L157.938,4.98438 M157.938,2.64063 L158.438,2.64063 L158.438,3.3125 L157.938,3.3125 L157.938,2.64063 M164.578,6.01563 C164.224,5.52604 163.74,5.28125 163.125,5.28125 C162.51,5.28125 162.026,5.52604 161.672,6.01563 C161.318,6.49479 161.141,7.15104 161.141,7.98438 C161.141,8.83854 161.318,9.51042 161.672,10 C162.026,10.4896 162.51,10.7344 163.125,10.7344 C163.74,10.7344 164.224,10.4896 164.578,10 C164.932,9.5 165.109,8.82813 165.109,7.98438 C165.109,7.16146 164.932,6.50521 164.578,6.01563 M163.125,4.84375 C163.885,4.84375 164.49,5.13021 164.938,5.70313 C165.385,6.27604 165.609,7.03646 165.609,7.98438 C165.609,8.97396 165.385,9.75521 164.938,10.3281 C164.49,10.901 163.885,11.1875 163.125,11.1875 C162.344,11.1875 161.729,10.901 161.281,10.3281 C160.844,9.75521 160.625,8.97396 160.625,7.98438 C160.625,7.02604 160.849,6.26302 161.297,5.69531 C161.745,5.1276 162.354,4.84375 163.125,4.84375 M172.266,7.375 L172.266,11 L171.766,11 L171.766,7.40625 C171.766,6.625 171.641,6.07552 171.391,5.75781 C171.141,5.4401 170.771,5.28125 170.281,5.28125 C169.708,5.28125 169.224,5.45313 168.828,5.79688 C168.411,6.14063 168.203,6.73958 168.203,7.59375 L168.203,11 L167.719,11 L167.719,4.98438 L168.203,4.98438 L168.203,6.10938 C168.38,5.74479 168.615,5.46875 168.906,5.28125 C169.323,4.98958 169.786,4.84375 170.297,4.84375 C170.901,4.84375 171.38,5.04688 171.734,5.45313 C172.089,5.84896 172.266,6.48958 172.266,7.375 M176.406,2.98438 L176.969,2.98438 L174.172,12.0156 L173.609,12.0156 L176.406,2.98438 M180.969,2.64063 L180.969,3.0625 L180.281,3.0625 C179.917,3.0625 179.635,3.15625 179.438,3.34375 C179.198,3.57292 179.078,3.94271 179.078,4.45313 L179.078,4.98438 L180.703,4.98438 L180.703,5.40625 L179.078,5.40625 L179.078,11 L178.578,11 L178.578,5.40625 L177.641,5.40625 L177.641,4.98438 L178.578,4.98438 L178.578,4.5625 C178.578,3.89583 178.734,3.41146 179.047,3.10938 C179.349,2.79688 179.76,2.64063 180.281,2.64063 L180.969,2.64063 M186.938,7.75 L186.938,8.0625 L182.375,8.0625 C182.375,9.02083 182.563,9.69792 182.938,10.0938 C183.354,10.5208 183.969,10.7344 184.781,10.7344 C185,10.7344 185.286,10.6875 185.641,10.5938 C185.995,10.5 186.349,10.3594 186.703,10.1719 L186.703,10.6875 C186.349,10.8438 185.987,10.9609 185.617,11.0391 C185.247,11.1172 184.953,11.1563 184.734,11.1563 C183.807,11.1563 183.109,10.9063 182.641,10.4063 C182.13,9.875 181.875,9.09375 181.875,8.0625 C181.875,6.98958 182.104,6.1875 182.563,5.65625 C183.042,5.11458 183.708,4.84375 184.563,4.84375 C185.344,4.84375 185.938,5.10417 186.344,5.625 C186.74,6.16667 186.938,6.875 186.938,7.75 M186.438,7.64063 C186.438,6.79688 186.245,6.18229 185.859,5.79688 C185.547,5.45313 185.115,5.28125 184.563,5.28125 C183.969,5.28125 183.469,5.45833 183.063,5.8125 C182.688,6.14583 182.464,6.75521 182.391,7.64063 L186.438,7.64063 M193.703,7.75 L193.703,8.0625 L189.141,8.0625 C189.141,9.02083 189.328,9.69792 189.703,10.0938 C190.12,10.5208 190.734,10.7344 191.547,10.7344 C191.766,10.7344 192.052,10.6875 192.406,10.5938 C192.76,10.5 193.115,10.3594 193.469,10.1719 L193.469,10.6875 C193.115,10.8438 192.753,10.9609 192.383,11.0391 C192.013,11.1172 191.719,11.1563 191.5,11.1563 C190.573,11.1563 189.875,10.9063 189.406,10.4063 C188.896,9.875 188.641,9.09375 188.641,8.0625 C188.641,6.98958 188.87,6.1875 189.328,5.65625 C189.807,5.11458 190.474,4.84375 191.328,4.84375 C192.109,4.84375 192.703,5.10417 193.109,5.625 C193.505,6.16667 193.703,6.875 193.703,7.75 M193.203,7.64063 C193.203,6.79688 193.01,6.18229 192.625,5.79688 C192.313,5.45313 191.88,5.28125 191.328,5.28125 C190.734,5.28125 190.234,5.45833 189.828,5.8125 C189.453,6.14583 189.229,6.75521 189.156,7.64063 L193.203,7.64063 M199.781,6.35938 L199.781,2.64063 L200.25,2.64063 L200.25,11 L199.781,11 L199.781,9.64063 C199.552,10.1615 199.302,10.5156 199.031,10.7031 C198.635,11.0052 198.255,11.1563 197.891,11.1563 C197.182,11.1563 196.591,10.8672 196.117,10.2891 C195.643,9.71094 195.406,8.94792 195.406,8 C195.406,7.05208 195.643,6.28906 196.117,5.71094 C196.591,5.13281 197.182,4.84375 197.891,4.84375 C198.255,4.84375 198.635,4.98958 199.031,5.28125 C199.302,5.47917 199.552,5.83854 199.781,6.35938 M196.547,5.90625 C196.13,6.32292 195.922,7.02083 195.922,8 C195.922,8.97917 196.13,9.67708 196.547,10.0938 C196.964,10.5104 197.401,10.7188 197.859,10.7188 C198.307,10.7188 198.74,10.5104 199.156,10.0938 C199.563,9.67708 199.766,8.97917 199.766,8 C199.766,7.02083 199.563,6.32292 199.156,5.90625 C198.74,5.48958 198.307,5.28125 197.859,5.28125 C197.401,5.28125 196.964,5.48958 196.547,5.90625 M206.469,10.0938 C206.885,9.67708 207.094,8.97917 207.094,8 C207.094,7.02083 206.885,6.32292 206.469,5.90625 C206.052,5.48958 205.615,5.28125 205.156,5.28125 C204.708,5.28125 204.276,5.48958 203.859,5.90625 C203.453,6.32292 203.25,7.02083 203.25,8 C203.25,8.97917 203.453,9.67708 203.859,10.0938 C204.276,10.5104 204.708,10.7188 205.156,10.7188 C205.615,10.7188 206.052,10.5104 206.469,10.0938 M203.234,6.35938 C203.464,5.83854 203.708,5.47917 203.969,5.28125 C204.375,4.98958 204.76,4.84375 205.125,4.84375 C205.833,4.84375 206.424,5.13281 206.898,5.71094 C207.372,6.28906 207.609,7.05208 207.609,8 C207.609,8.94792 207.372,9.71094 206.898,10.2891 C206.424,10.8672 205.833,11.1563 205.125,11.1563 C204.76,11.1563 204.375,11.0052 203.969,10.7031 C203.708,10.5156 203.464,10.1615 203.234,9.64063 L203.234,11 L202.75,11 L202.75,2.64063 L203.234,2.64063 L203.234,6.35938 M212.125,7.60938 C211.323,7.60938 210.747,7.75 210.398,8.03125 C210.049,8.3125 209.875,8.72396 209.875,9.26563 C209.875,9.79688 210.021,10.1745 210.313,10.3984 C210.604,10.6224 210.948,10.7344 211.344,10.7344 C212.094,10.7344 212.635,10.4167 212.969,9.78125 C213.302,9.13542 213.469,8.53125 213.469,7.96875 L213.469,7.60938 L212.125,7.60938 M213.969,7.5625 L213.969,11 L213.469,11 L213.469,9.35938 C213.198,10.1615 212.833,10.6719 212.375,10.8906 C212.021,11.0677 211.661,11.1563 211.297,11.1563 C210.703,11.1563 210.234,10.9948 209.891,10.6719 C209.547,10.349 209.375,9.8776 209.375,9.25781 C209.375,8.63802 209.599,8.14063 210.047,7.76563 C210.495,7.39063 211.224,7.20313 212.234,7.20313 L213.469,7.20313 L213.469,7.10938 C213.469,6.57813 213.313,6.14063 213,5.79688 C212.708,5.45313 212.214,5.28125 211.516,5.28125 C211.172,5.28125 210.823,5.34375 210.469,5.46875 C210.24,5.55208 209.938,5.71875 209.563,5.96875 L209.563,5.4375 C209.885,5.23958 210.188,5.09896 210.469,5.01563 C210.865,4.90104 211.245,4.84375 211.609,4.84375 C212.328,4.84375 212.917,5.05729 213.375,5.48438 C213.771,5.84896 213.969,6.54167 213.969,7.5625 M220.563,5.28125 L220.563,5.79688 C220.271,5.61979 220.026,5.5 219.828,5.4375 C219.495,5.33333 219.177,5.28125 218.875,5.28125 C218.01,5.28125 217.391,5.5026 217.016,5.94531 C216.641,6.38802 216.453,7.07292 216.453,8 C216.453,8.9375 216.641,9.6276 217.016,10.0703 C217.391,10.513 218.01,10.7344 218.875,10.7344 C219.167,10.7344 219.448,10.6927 219.719,10.6094 C220.01,10.5365 220.292,10.4219 220.563,10.2656 L220.563,10.7656 C220.292,10.901 220.01,11 219.719,11.0625 C219.417,11.125 219.12,11.1563 218.828,11.1563 C217.953,11.1563 217.255,10.9167 216.734,10.4375 C216.214,9.95833 215.953,9.14323 215.953,7.99219 C215.953,6.84115 216.214,6.02604 216.734,5.54688 C217.255,5.07813 217.953,4.84375 218.828,4.84375 C219.12,4.84375 219.427,4.88542 219.75,4.96875 C220.073,5.04167 220.344,5.14583 220.563,5.28125 M223,2.64063 L223.5,2.64063 L223.5,7.71875 L226.484,4.98438 L227.156,4.98438 L224.047,7.82813 L227.266,11 L226.625,11 L223.5,7.92188 L223.5,11 L223,11 L223,2.64063"/>
</g>

<g fill="none" stroke="#000000" stroke-opacity="1" stroke-width="1" stroke-linecap="square" stroke-linejoin="bevel" transform="matrix(1.99364,0,0,1.99364,240.005,51.8346)"
font-family="sans" font-size="11" font-weight="100" font-style="normal" 
>
</g>

<g fill="none" stroke="#000000" stroke-opacity="1" stroke-width="1" stroke-linecap="square" stroke-linejoin="bevel" transform="matrix(1.99364,0,0,1.99364,240.005,51.8346)"
font-family="Ubuntu" font-size="11" font-weight="400" font-style="normal" 
>
</g>

<g fill="none" stroke="#000000" stroke-opacity="1" stroke-width="1" stroke-linecap="square" stroke-linejoin="bevel" transform="matrix(1.99364,0,0,1.99364,-0.000398728,142.39)"
font-family="Ubuntu" font-size="11" font-weight="400" font-style="normal" 
>
</g>

<g fill="#000000" fill-opacity="1" stroke="#000000" stroke-opacity="1" stroke-width="1" stroke-linecap="square" stroke-linejoin="round" transform="matrix(1.99364,0,0,1.99364,-0.000398728,142.39)"
font-family="Ubuntu" font-size="11" font-weight="400" font-style="normal" 
>
<path vector-effect="none" fill-rule="evenodd" d="M126.03,-30.922 L126.03,-34.4605 L115.92,-30.922 L126.03,-27.3835 L126.03,-30.922"/>
</g>

<g fill="none" stroke="#000000" stroke-opacity="1" stroke-width="1" stroke-linecap="square" stroke-linejoin="bevel" transform="matrix(1.99364,0,0,1.99364,-0.000398728,142.39)"
font-family="Ubuntu" font-size="11" font-weight="400" font-style="normal" 
>
</g>

<g fill="none" stroke="#000000" stroke-opacity="1" stroke-width="1" stroke-linecap="square" stroke-linejoin="bevel" transform="matrix(1.99364,0,0,1.99364,-0.000398728,142.39)"
font-family="Ubuntu" font-size="11" font-weight="400" font-style="normal" 
>
</g>

<g fill="none" stroke="#000000" stroke-opacity="1" stroke-width="1" stroke-linecap="square" stroke-linejoin="bevel" transform="matrix(1.99364,0,0,1.99364,-0.000398728,142.39)"
font-family="Ubuntu" font-size="11" font-weight="400" font-style="normal" 
>
</g>

<g fill="none" stroke="#000000" stroke-opacity="1" stroke-width="1" stroke-linecap="square" stroke-linejoin="bevel" transform="matrix(1.99364,0,0,1.99364,-0.000398728,142.39)"
font-family="Ubuntu" font-size="11" font-weight="400" font-style="normal" 
>
</g>

<g fill="none" stroke="#000000" stroke-opacity="1" stroke-width="1" stroke-linecap="square" stroke-linejoin="round" transform="matrix(1.99364,0,0,1.99364,-0.000398728,142.39)"
font-family="Ubuntu" font-size="11" font-weight="400" font-style="normal" 
>
<path vector-effect="none" fill-rule="evenodd" d="M367.32,-17.84 C360.35,-15.387 352.86,-13.195 345.69,-11.922 C248.54,5.3184 221.36,2.0919 123.69,-11.922 C118.32,-12.693 112.77,-13.805 107.29,-15.11 "/>
</g>

<g fill="none" stroke="#000000" stroke-opacity="1" stroke-width="1" stroke-linecap="square" stroke-linejoin="bevel" transform="matrix(1.99364,0,0,1.99364,-0.000398728,142.39)"
font-family="Ubuntu" font-size="11" font-weight="400" font-style="normal" 
>
</g>

<g fill="none" stroke="#000000" stroke-opacity="1" stroke-width="1" stroke-linecap="square" stroke-linejoin="bevel" transform="matrix(1.99364,0,0,1.99364,257.651,89.7138)"
font-family="Ubuntu" font-size="11" font-weight="400" font-style="normal" 
>
</g>

<g fill="none" stroke="#000000" stroke-opacity="1" stroke-width="1" stroke-linecap="square" stroke-linejoin="bevel" transform="matrix(1.99364,0,0,1.99364,257.651,89.7138)"
font-family="sans" font-size="11" font-weight="100" font-style="normal" 
>
</g>

<g fill="#000000" fill-opacity="1" stroke="#000000" stroke-opacity="1" stroke-width="1" stroke-linecap="square" stroke-linejoin="round" transform="matrix(1.99364,0,0,1.99364,257.651,89.7138)"
font-family="sans" font-size="11" font-weight="100" font-style="normal" 
>
<path vector-effect="none" fill-rule="nonzero" d="M2.96875,2.98438 L3.53125,2.98438 L0.734375,12.0156 L0.171875,12.0156 L2.96875,2.98438 M5.46875,3.28125 L5.46875,4.98438 L7.5,4.98438 L7.5,5.40625 L5.46875,5.40625 L5.46875,9.01563 C5.46875,9.47396 5.52604,9.79688 5.64063,9.98438 C5.89063,10.3802 6.25,10.5781 6.71875,10.5781 L7.5,10.5781 L7.5,11 L6.73438,11 C6.24479,11 5.82813,10.8568 5.48438,10.5703 C5.14063,10.2839 4.96875,9.76563 4.96875,9.01563 L4.96875,5.40625 L4.25,5.40625 L4.25,4.98438 L4.96875,4.98438 L4.96875,3.28125 L5.46875,3.28125 M9.20313,8.60938 L9.20313,4.98438 L9.6875,4.98438 L9.6875,8.57813 C9.6875,9.35938 9.8125,9.90885 10.0625,10.2266 C10.3125,10.5443 10.6823,10.7031 11.1719,10.7031 C11.7448,10.7031 12.2344,10.5313 12.6406,10.1875 C13.0469,9.84375 13.25,9.24479 13.25,8.39063 L13.25,4.98438 L13.7344,4.98438 L13.7344,11 L13.25,11 L13.25,9.875 C13.0729,10.2396 12.8385,10.5156 12.5469,10.7031 C12.1302,10.9948 11.6667,11.1406 11.1563,11.1406 C10.5625,11.1406 10.0885,10.9375 9.73438,10.5313 C9.38021,10.1354 9.20313,9.49479 9.20313,8.60938 M19.5,5.40625 C19.4167,5.36458 19.3073,5.33333 19.1719,5.3125 C19.0469,5.29167 18.8958,5.28125 18.7188,5.28125 C18.1042,5.28125 17.599,5.50521 17.2031,5.95313 C16.8802,6.31771 16.7188,6.94271 16.7188,7.82813 L16.7188,11 L16.2344,11 L16.2344,4.98438 L16.7188,4.98438 L16.7188,6.10938 C16.8854,5.78646 17.1146,5.51563 17.4063,5.29688 C17.8021,4.99479 18.2708,4.84375 18.8125,4.84375 C18.9583,4.84375 19.0833,4.84896 19.1875,4.85938 C19.2917,4.85938 19.3958,4.86979 19.5,4.89063 L19.5,5.40625 M21.2656,3.28125 L21.2656,4.98438 L23.2969,4.98438 L23.2969,5.40625 L21.2656,5.40625 L21.2656,9.01563 C21.2656,9.47396 21.3229,9.79688 21.4375,9.98438 C21.6875,10.3802 22.0469,10.5781 22.5156,10.5781 L23.2969,10.5781 L23.2969,11 L22.5313,11 C22.0417,11 21.625,10.8568 21.2813,10.5703 C20.9375,10.2839 20.7656,9.76563 20.7656,9.01563 L20.7656,5.40625 L20.0469,5.40625 L20.0469,4.98438 L20.7656,4.98438 L20.7656,3.28125 L21.2656,3.28125 M25.0625,2.64063 L25.5469,2.64063 L25.5469,11 L25.0625,11 L25.0625,2.64063 M32.7969,7.75 L32.7969,8.0625 L28.2344,8.0625 C28.2344,9.02083 28.4219,9.69792 28.7969,10.0938 C29.2135,10.5208 29.8281,10.7344 30.6406,10.7344 C30.8594,10.7344 31.1458,10.6875 31.5,10.5938 C31.8542,10.5 32.2083,10.3594 32.5625,10.1719 L32.5625,10.6875 C32.2083,10.8438 31.8464,10.9609 31.4766,11.0391 C31.1068,11.1172 30.8125,11.1563 30.5938,11.1563 C29.6667,11.1563 28.9688,10.9063 28.5,10.4063 C27.9896,9.875 27.7344,9.09375 27.7344,8.0625 C27.7344,6.98958 27.9635,6.1875 28.4219,5.65625 C28.901,5.11458 29.5677,4.84375 30.4219,4.84375 C31.2031,4.84375 31.7969,5.10417 32.2031,5.625 C32.599,6.16667 32.7969,6.875 32.7969,7.75 M32.2969,7.64063 C32.2969,6.79688 32.1042,6.18229 31.7188,5.79688 C31.4063,5.45313 30.974,5.28125 30.4219,5.28125 C29.8281,5.28125 29.3281,5.45833 28.9219,5.8125 C28.5469,6.14583 28.3229,6.75521 28.25,7.64063 L32.2969,7.64063 M35.2656,10.5625 L37.0313,10.5625 L37.0313,3.46875 L34.8281,4.35938 L34.8281,3.85938 L37.0156,2.98438 L37.5625,2.98438 L37.5625,10.5625 L39.3438,10.5625 L39.3438,11 L35.2656,11 L35.2656,10.5625 M43.5781,2.98438 L44.1406,2.98438 L41.3438,12.0156 L40.7813,12.0156 L43.5781,2.98438 M48.8281,5.40625 C48.7448,5.36458 48.6354,5.33333 48.5,5.3125 C48.375,5.29167 48.224,5.28125 48.0469,5.28125 C47.4323,5.28125 46.9271,5.50521 46.5313,5.95313 C46.2083,6.31771 46.0469,6.94271 46.0469,7.82813 L46.0469,11 L45.5625,11 L45.5625,4.98438 L46.0469,4.98438 L46.0469,6.10938 C46.2135,5.78646 46.4427,5.51563 46.7344,5.29688 C47.1302,4.99479 47.599,4.84375 48.1406,4.84375 C48.2865,4.84375 48.4115,4.84896 48.5156,4.85938 C48.6198,4.85938 48.724,4.86979 48.8281,4.89063 L48.8281,5.40625 M53.6563,6.01563 C53.3021,5.52604 52.8177,5.28125 52.2031,5.28125 C51.5885,5.28125 51.1042,5.52604 50.75,6.01563 C50.3958,6.49479 50.2188,7.15104 50.2188,7.98438 C50.2188,8.83854 50.3958,9.51042 50.75,10 C51.1042,10.4896 51.5885,10.7344 52.2031,10.7344 C52.8177,10.7344 53.3021,10.4896 53.6563,10 C54.0104,9.5 54.1875,8.82813 54.1875,7.98438 C54.1875,7.16146 54.0104,6.50521 53.6563,6.01563 M52.2031,4.84375 C52.9635,4.84375 53.5677,5.13021 54.0156,5.70313 C54.4635,6.27604 54.6875,7.03646 54.6875,7.98438 C54.6875,8.97396 54.4635,9.75521 54.0156,10.3281 C53.5677,10.901 52.9635,11.1875 52.2031,11.1875 C51.4219,11.1875 50.8073,10.901 50.3594,10.3281 C49.9219,9.75521 49.7031,8.97396 49.7031,7.98438 C49.7031,7.02604 49.9271,6.26302 50.375,5.69531 C50.8229,5.1276 51.4323,4.84375 52.2031,4.84375 M57.3125,3.28125 L57.3125,4.98438 L59.3438,4.98438 L59.3438,5.40625 L57.3125,5.40625 L57.3125,9.01563 C57.3125,9.47396 57.3698,9.79688 57.4844,9.98438 C57.7344,10.3802 58.0938,10.5781 58.5625,10.5781 L59.3438,10.5781 L59.3438,11 L58.5781,11 C58.0885,11 57.6719,10.8568 57.3281,10.5703 C56.9844,10.2839 56.8125,9.76563 56.8125,9.01563 L56.8125,5.40625 L56.0938,5.40625 L56.0938,4.98438 L56.8125,4.98438 L56.8125,3.28125 L57.3125,3.28125 M63.5156,7.60938 C62.7135,7.60938 62.138,7.75 61.7891,8.03125 C61.4401,8.3125 61.2656,8.72396 61.2656,9.26563 C61.2656,9.79688 61.4115,10.1745 61.7031,10.3984 C61.9948,10.6224 62.3385,10.7344 62.7344,10.7344 C63.4844,10.7344 64.026,10.4167 64.3594,9.78125 C64.6927,9.13542 64.8594,8.53125 64.8594,7.96875 L64.8594,7.60938 L63.5156,7.60938 M65.3594,7.5625 L65.3594,11 L64.8594,11 L64.8594,9.35938 C64.5885,10.1615 64.224,10.6719 63.7656,10.8906 C63.4115,11.0677 63.0521,11.1563 62.6875,11.1563 C62.0938,11.1563 61.625,10.9948 61.2813,10.6719 C60.9375,10.349 60.7656,9.8776 60.7656,9.25781 C60.7656,8.63802 60.9896,8.14063 61.4375,7.76563 C61.8854,7.39063 62.6146,7.20313 63.625,7.20313 L64.8594,7.20313 L64.8594,7.10938 C64.8594,6.57813 64.7031,6.14063 64.3906,5.79688 C64.099,5.45313 63.6042,5.28125 62.9063,5.28125 C62.5625,5.28125 62.2135,5.34375 61.8594,5.46875 C61.6302,5.55208 61.3281,5.71875 60.9531,5.96875 L60.9531,5.4375 C61.276,5.23958 61.5781,5.09896 61.8594,5.01563 C62.2552,4.90104 62.6354,4.84375 63,4.84375 C63.7188,4.84375 64.3073,5.05729 64.7656,5.48438 C65.1615,5.84896 65.3594,6.54167 65.3594,7.5625 M68.3594,3.28125 L68.3594,4.98438 L70.3906,4.98438 L70.3906,5.40625 L68.3594,5.40625 L68.3594,9.01563 C68.3594,9.47396 68.4167,9.79688 68.5313,9.98438 C68.7813,10.3802 69.1406,10.5781 69.6094,10.5781 L70.3906,10.5781 L70.3906,11 L69.625,11 C69.1354,11 68.7188,10.8568 68.375,10.5703 C68.0313,10.2839 67.8594,9.76563 67.8594,9.01563 L67.8594,5.40625 L67.1406,5.40625 L67.1406,4.98438 L67.8594,4.98438 L67.8594,3.28125 L68.3594,3.28125 M76.8438,7.75 L76.8438,8.0625 L72.2813,8.0625 C72.2813,9.02083 72.4688,9.69792 72.8438,10.0938 C73.2604,10.5208 73.875,10.7344 74.6875,10.7344 C74.9063,10.7344 75.1927,10.6875 75.5469,10.5938 C75.901,10.5 76.2552,10.3594 76.6094,10.1719 L76.6094,10.6875 C76.2552,10.8438 75.8932,10.9609 75.5234,11.0391 C75.1536,11.1172 74.8594,11.1563 74.6406,11.1563 C73.7135,11.1563 73.0156,10.9063 72.5469,10.4063 C72.0365,9.875 71.7813,9.09375 71.7813,8.0625 C71.7813,6.98958 72.0104,6.1875 72.4688,5.65625 C72.9479,5.11458 73.6146,4.84375 74.4688,4.84375 C75.25,4.84375 75.8438,5.10417 76.25,5.625 C76.6458,6.16667 76.8438,6.875 76.8438,7.75 M76.3438,7.64063 C76.3438,6.79688 76.151,6.18229 75.7656,5.79688 C75.4531,5.45313 75.0208,5.28125 74.4688,5.28125 C73.875,5.28125 73.375,5.45833 72.9688,5.8125 C72.5938,6.14583 72.3698,6.75521 72.2969,7.64063 L76.3438,7.64063 M83.2813,13.1719 L83.2813,13.5938 L77.5625,13.5938 L77.5625,13.1719 L83.2813,13.1719 M86.8281,7.60938 C86.026,7.60938 85.4505,7.75 85.1016,8.03125 C84.7526,8.3125 84.5781,8.72396 84.5781,9.26563 C84.5781,9.79688 84.724,10.1745 85.0156,10.3984 C85.3073,10.6224 85.651,10.7344 86.0469,10.7344 C86.7969,10.7344 87.3385,10.4167 87.6719,9.78125 C88.0052,9.13542 88.1719,8.53125 88.1719,7.96875 L88.1719,7.60938 L86.8281,7.60938 M88.6719,7.5625 L88.6719,11 L88.1719,11 L88.1719,9.35938 C87.901,10.1615 87.5365,10.6719 87.0781,10.8906 C86.724,11.0677 86.3646,11.1563 86,11.1563 C85.4063,11.1563 84.9375,10.9948 84.5938,10.6719 C84.25,10.349 84.0781,9.8776 84.0781,9.25781 C84.0781,8.63802 84.3021,8.14063 84.75,7.76563 C85.1979,7.39063 85.9271,7.20313 86.9375,7.20313 L88.1719,7.20313 L88.1719,7.10938 C88.1719,6.57813 88.0156,6.14063 87.7031,5.79688 C87.4115,5.45313 86.9167,5.28125 86.2188,5.28125 C85.875,5.28125 85.526,5.34375 85.1719,5.46875 C84.9427,5.55208 84.6406,5.71875 84.2656,5.96875 L84.2656,5.4375 C84.5885,5.23958 84.8906,5.09896 85.1719,5.01563 C85.5677,4.90104 85.9479,4.84375 86.3125,4.84375 C87.0313,4.84375 87.6198,5.05729 88.0781,5.48438 C88.474,5.84896 88.6719,6.54167 88.6719,7.5625 M94.875,10.0938 C95.2917,9.67708 95.5,8.97917 95.5,8 C95.5,7.02083 95.2917,6.32292 94.875,5.90625 C94.4583,5.48958 94.0208,5.28125 93.5625,5.28125 C93.1146,5.28125 92.6823,5.48958 92.2656,5.90625 C91.8594,6.32292 91.6563,7.02083 91.6563,8 C91.6563,8.97917 91.8594,9.67708 92.2656,10.0938 C92.6823,10.5104 93.1146,10.7188 93.5625,10.7188 C94.0208,10.7188 94.4583,10.5104 94.875,10.0938 M91.6406,6.35938 C91.8698,5.83854 92.1146,5.47917 92.375,5.28125 C92.7813,4.98958 93.1667,4.84375 93.5313,4.84375 C94.2396,4.84375 94.8307,5.13281 95.3047,5.71094 C95.7786,6.28906 96.0156,7.05208 96.0156,8 C96.0156,8.94792 95.7786,9.71094 95.3047,10.2891 C94.8307,10.8672 94.2396,11.1563 93.5313,11.1563 C93.1667,11.1563 92.7813,11.0052 92.375,10.7031 C92.1146,10.5156 91.8698,10.1615 91.6406,9.64063 L91.6406,11 L91.1563,11 L91.1563,2.64063 L91.6406,2.64063 L91.6406,6.35938 M101.531,5.15625 L101.531,5.70313 C101.177,5.50521 100.958,5.39583 100.875,5.375 C100.625,5.32292 100.313,5.29167 99.9375,5.28125 C99.375,5.28125 98.9323,5.39063 98.6094,5.60938 C98.3594,5.79688 98.2344,6.11458 98.2344,6.5625 C98.2344,6.875 98.3542,7.11458 98.5938,7.28125 C98.8333,7.46875 99.1823,7.61458 99.6406,7.71875 L99.9844,7.78125 C100.557,7.90625 100.99,8.08333 101.281,8.3125 C101.625,8.58333 101.802,8.92708 101.813,9.34375 C101.813,9.90625 101.646,10.349 101.313,10.6719 C100.958,10.9948 100.38,11.1563 99.5781,11.1563 C99.1406,11.1563 98.8073,11.125 98.5781,11.0625 C98.2969,10.9896 98.0052,10.8958 97.7031,10.7813 L97.7031,10.1563 C98.1406,10.4063 98.4219,10.5521 98.5469,10.5938 C98.901,10.6875 99.2552,10.7344 99.6094,10.7344 C100.182,10.7344 100.609,10.6146 100.891,10.375 C101.172,10.125 101.313,9.80729 101.313,9.42188 C101.313,9.08854 101.219,8.84896 101.031,8.70313 C100.76,8.48438 100.333,8.30729 99.75,8.17188 L99.4063,8.09375 C98.8958,7.96875 98.5104,7.80208 98.25,7.59375 C97.9167,7.32292 97.75,6.99479 97.75,6.60938 C97.75,5.98438 97.9505,5.53385 98.3516,5.25781 C98.7526,4.98177 99.2448,4.84375 99.8281,4.84375 C100.328,4.84375 100.672,4.86979 100.859,4.92188 C101.089,4.98438 101.313,5.0625 101.531,5.15625 M107.422,6.01563 C107.068,5.52604 106.583,5.28125 105.969,5.28125 C105.354,5.28125 104.87,5.52604 104.516,6.01563 C104.161,6.49479 103.984,7.15104 103.984,7.98438 C103.984,8.83854 104.161,9.51042 104.516,10 C104.87,10.4896 105.354,10.7344 105.969,10.7344 C106.583,10.7344 107.068,10.4896 107.422,10 C107.776,9.5 107.953,8.82813 107.953,7.98438 C107.953,7.16146 107.776,6.50521 107.422,6.01563 M105.969,4.84375 C106.729,4.84375 107.333,5.13021 107.781,5.70313 C108.229,6.27604 108.453,7.03646 108.453,7.98438 C108.453,8.97396 108.229,9.75521 107.781,10.3281 C107.333,10.901 106.729,11.1875 105.969,11.1875 C105.188,11.1875 104.573,10.901 104.125,10.3281 C103.688,9.75521 103.469,8.97396 103.469,7.98438 C103.469,7.02604 103.693,6.26302 104.141,5.69531 C104.589,5.1276 105.198,4.84375 105.969,4.84375 M110.563,2.64063 L111.047,2.64063 L111.047,11 L110.563,11 L110.563,2.64063 M113.547,8.60938 L113.547,4.98438 L114.031,4.98438 L114.031,8.57813 C114.031,9.35938 114.156,9.90885 114.406,10.2266 C114.656,10.5443 115.026,10.7031 115.516,10.7031 C116.089,10.7031 116.578,10.5313 116.984,10.1875 C117.391,9.84375 117.594,9.24479 117.594,8.39063 L117.594,4.98438 L118.078,4.98438 L118.078,11 L117.594,11 L117.594,9.875 C117.417,10.2396 117.182,10.5156 116.891,10.7031 C116.474,10.9948 116.01,11.1406 115.5,11.1406 C114.906,11.1406 114.432,10.9375 114.078,10.5313 C113.724,10.1354 113.547,9.49479 113.547,8.60938 M121.094,3.28125 L121.094,4.98438 L123.125,4.98438 L123.125,5.40625 L121.094,5.40625 L121.094,9.01563 C121.094,9.47396 121.151,9.79688 121.266,9.98438 C121.516,10.3802 121.875,10.5781 122.344,10.5781 L123.125,10.5781 L123.125,11 L122.359,11 C121.87,11 121.453,10.8568 121.109,10.5703 C120.766,10.2839 120.594,9.76563 120.594,9.01563 L120.594,5.40625 L119.875,5.40625 L119.875,4.98438 L120.594,4.98438 L120.594,3.28125 L121.094,3.28125 M129.578,7.75 L129.578,8.0625 L125.016,8.0625 C125.016,9.02083 125.203,9.69792 125.578,10.0938 C125.995,10.5208 126.609,10.7344 127.422,10.7344 C127.641,10.7344 127.927,10.6875 128.281,10.5938 C128.635,10.5 128.99,10.3594 129.344,10.1719 L129.344,10.6875 C128.99,10.8438 128.628,10.9609 128.258,11.0391 C127.888,11.1172 127.594,11.1563 127.375,11.1563 C126.448,11.1563 125.75,10.9063 125.281,10.4063 C124.771,9.875 124.516,9.09375 124.516,8.0625 C124.516,6.98958 124.745,6.1875 125.203,5.65625 C125.682,5.11458 126.349,4.84375 127.203,4.84375 C127.984,4.84375 128.578,5.10417 128.984,5.625 C129.38,6.16667 129.578,6.875 129.578,7.75 M129.078,7.64063 C129.078,6.79688 128.885,6.18229 128.5,5.79688 C128.188,5.45313 127.755,5.28125 127.203,5.28125 C126.609,5.28125 126.109,5.45833 125.703,5.8125 C125.328,6.14583 125.104,6.75521 125.031,7.64063 L129.078,7.64063 M133.375,2.98438 L133.938,2.98438 L131.141,12.0156 L130.578,12.0156 L133.375,2.98438 M139.719,13.1719 L139.719,13.5938 L134,13.5938 L134,13.1719 L139.719,13.1719 M143.266,7.60938 C142.464,7.60938 141.888,7.75 141.539,8.03125 C141.19,8.3125 141.016,8.72396 141.016,9.26563 C141.016,9.79688 141.161,10.1745 141.453,10.3984 C141.745,10.6224 142.089,10.7344 142.484,10.7344 C143.234,10.7344 143.776,10.4167 144.109,9.78125 C144.443,9.13542 144.609,8.53125 144.609,7.96875 L144.609,7.60938 L143.266,7.60938 M145.109,7.5625 L145.109,11 L144.609,11 L144.609,9.35938 C144.339,10.1615 143.974,10.6719 143.516,10.8906 C143.161,11.0677 142.802,11.1563 142.438,11.1563 C141.844,11.1563 141.375,10.9948 141.031,10.6719 C140.688,10.349 140.516,9.8776 140.516,9.25781 C140.516,8.63802 140.74,8.14063 141.188,7.76563 C141.635,7.39063 142.365,7.20313 143.375,7.20313 L144.609,7.20313 L144.609,7.10938 C144.609,6.57813 144.453,6.14063 144.141,5.79688 C143.849,5.45313 143.354,5.28125 142.656,5.28125 C142.313,5.28125 141.964,5.34375 141.609,5.46875 C141.38,5.55208 141.078,5.71875 140.703,5.96875 L140.703,5.4375 C141.026,5.23958 141.328,5.09896 141.609,5.01563 C142.005,4.90104 142.385,4.84375 142.75,4.84375 C143.469,4.84375 144.057,5.05729 144.516,5.48438 C144.911,5.84896 145.109,6.54167 145.109,7.5625 M151.703,5.28125 L151.703,5.79688 C151.411,5.61979 151.167,5.5 150.969,5.4375 C150.635,5.33333 150.318,5.28125 150.016,5.28125 C149.151,5.28125 148.531,5.5026 148.156,5.94531 C147.781,6.38802 147.594,7.07292 147.594,8 C147.594,8.9375 147.781,9.6276 148.156,10.0703 C148.531,10.513 149.151,10.7344 150.016,10.7344 C150.307,10.7344 150.589,10.6927 150.859,10.6094 C151.151,10.5365 151.432,10.4219 151.703,10.2656 L151.703,10.7656 C151.432,10.901 151.151,11 150.859,11.0625 C150.557,11.125 150.26,11.1563 149.969,11.1563 C149.094,11.1563 148.396,10.9167 147.875,10.4375 C147.354,9.95833 147.094,9.14323 147.094,7.99219 C147.094,6.84115 147.354,6.02604 147.875,5.54688 C148.396,5.07813 149.094,4.84375 149.969,4.84375 C150.26,4.84375 150.568,4.88542 150.891,4.96875 C151.214,5.04167 151.484,5.14583 151.703,5.28125 M154.156,3.28125 L154.156,4.98438 L156.188,4.98438 L156.188,5.40625 L154.156,5.40625 L154.156,9.01563 C154.156,9.47396 154.214,9.79688 154.328,9.98438 C154.578,10.3802 154.938,10.5781 155.406,10.5781 L156.188,10.5781 L156.188,11 L155.422,11 C154.932,11 154.516,10.8568 154.172,10.5703 C153.828,10.2839 153.656,9.76563 153.656,9.01563 L153.656,5.40625 L152.938,5.40625 L152.938,4.98438 L153.656,4.98438 L153.656,3.28125 L154.156,3.28125 M157.938,4.98438 L158.438,4.98438 L158.438,11 L157.938,11 L157.938,4.98438 M157.938,2.64063 L158.438,2.64063 L158.438,3.3125 L157.938,3.3125 L157.938,2.64063 M164.578,6.01563 C164.224,5.52604 163.74,5.28125 163.125,5.28125 C162.51,5.28125 162.026,5.52604 161.672,6.01563 C161.318,6.49479 161.141,7.15104 161.141,7.98438 C161.141,8.83854 161.318,9.51042 161.672,10 C162.026,10.4896 162.51,10.7344 163.125,10.7344 C163.74,10.7344 164.224,10.4896 164.578,10 C164.932,9.5 165.109,8.82813 165.109,7.98438 C165.109,7.16146 164.932,6.50521 164.578,6.01563 M163.125,4.84375 C163.885,4.84375 164.49,5.13021 164.938,5.70313 C165.385,6.27604 165.609,7.03646 165.609,7.98438 C165.609,8.97396 165.385,9.75521 164.938,10.3281 C164.49,10.901 163.885,11.1875 163.125,11.1875 C162.344,11.1875 161.729,10.901 161.281,10.3281 C160.844,9.75521 160.625,8.97396 160.625,7.98438 C160.625,7.02604 160.849,6.26302 161.297,5.69531 C161.745,5.1276 162.354,4.84375 163.125,4.84375 M172.266,7.375 L172.266,11 L171.766,11 L171.766,7.40625 C171.766,6.625 171.641,6.07552 171.391,5.75781 C171.141,5.4401 170.771,5.28125 170.281,5.28125 C169.708,5.28125 169.224,5.45313 168.828,5.79688 C168.411,6.14063 168.203,6.73958 168.203,7.59375 L168.203,11 L167.719,11 L167.719,4.98438 L168.203,4.98438 L168.203,6.10938 C168.38,5.74479 168.615,5.46875 168.906,5.28125 C169.323,4.98958 169.786,4.84375 170.297,4.84375 C170.901,4.84375 171.38,5.04688 171.734,5.45313 C172.089,5.84896 172.266,6.48958 172.266,7.375 M176.406,2.98438 L176.969,2.98438 L174.172,12.0156 L173.609,12.0156 L176.406,2.98438 M181.797,5.15625 L181.797,5.70313 C181.443,5.50521 181.224,5.39583 181.141,5.375 C180.891,5.32292 180.578,5.29167 180.203,5.28125 C179.641,5.28125 179.198,5.39063 178.875,5.60938 C178.625,5.79688 178.5,6.11458 178.5,6.5625 C178.5,6.875 178.62,7.11458 178.859,7.28125 C179.099,7.46875 179.448,7.61458 179.906,7.71875 L180.25,7.78125 C180.823,7.90625 181.255,8.08333 181.547,8.3125 C181.891,8.58333 182.068,8.92708 182.078,9.34375 C182.078,9.90625 181.911,10.349 181.578,10.6719 C181.224,10.9948 180.646,11.1563 179.844,11.1563 C179.406,11.1563 179.073,11.125 178.844,11.0625 C178.563,10.9896 178.271,10.8958 177.969,10.7813 L177.969,10.1563 C178.406,10.4063 178.688,10.5521 178.813,10.5938 C179.167,10.6875 179.521,10.7344 179.875,10.7344 C180.448,10.7344 180.875,10.6146 181.156,10.375 C181.438,10.125 181.578,9.80729 181.578,9.42188 C181.578,9.08854 181.484,8.84896 181.297,8.70313 C181.026,8.48438 180.599,8.30729 180.016,8.17188 L179.672,8.09375 C179.161,7.96875 178.776,7.80208 178.516,7.59375 C178.182,7.32292 178.016,6.99479 178.016,6.60938 C178.016,5.98438 178.216,5.53385 178.617,5.25781 C179.018,4.98177 179.51,4.84375 180.094,4.84375 C180.594,4.84375 180.938,4.86979 181.125,4.92188 C181.354,4.98438 181.578,5.0625 181.797,5.15625 M184.625,3.28125 L184.625,4.98438 L186.656,4.98438 L186.656,5.40625 L184.625,5.40625 L184.625,9.01563 C184.625,9.47396 184.682,9.79688 184.797,9.98438 C185.047,10.3802 185.406,10.5781 185.875,10.5781 L186.656,10.5781 L186.656,11 L185.891,11 C185.401,11 184.984,10.8568 184.641,10.5703 C184.297,10.2839 184.125,9.76563 184.125,9.01563 L184.125,5.40625 L183.406,5.40625 L183.406,4.98438 L184.125,4.98438 L184.125,3.28125 L184.625,3.28125 M190.828,7.60938 C190.026,7.60938 189.451,7.75 189.102,8.03125 C188.753,8.3125 188.578,8.72396 188.578,9.26563 C188.578,9.79688 188.724,10.1745 189.016,10.3984 C189.307,10.6224 189.651,10.7344 190.047,10.7344 C190.797,10.7344 191.339,10.4167 191.672,9.78125 C192.005,9.13542 192.172,8.53125 192.172,7.96875 L192.172,7.60938 L190.828,7.60938 M192.672,7.5625 L192.672,11 L192.172,11 L192.172,9.35938 C191.901,10.1615 191.536,10.6719 191.078,10.8906 C190.724,11.0677 190.365,11.1563 190,11.1563 C189.406,11.1563 188.938,10.9948 188.594,10.6719 C188.25,10.349 188.078,9.8776 188.078,9.25781 C188.078,8.63802 188.302,8.14063 188.75,7.76563 C189.198,7.39063 189.927,7.20313 190.938,7.20313 L192.172,7.20313 L192.172,7.10938 C192.172,6.57813 192.016,6.14063 191.703,5.79688 C191.411,5.45313 190.917,5.28125 190.219,5.28125 C189.875,5.28125 189.526,5.34375 189.172,5.46875 C188.943,5.55208 188.641,5.71875 188.266,5.96875 L188.266,5.4375 C188.589,5.23958 188.891,5.09896 189.172,5.01563 C189.568,4.90104 189.948,4.84375 190.313,4.84375 C191.031,4.84375 191.62,5.05729 192.078,5.48438 C192.474,5.84896 192.672,6.54167 192.672,7.5625 M195.672,3.28125 L195.672,4.98438 L197.703,4.98438 L197.703,5.40625 L195.672,5.40625 L195.672,9.01563 C195.672,9.47396 195.729,9.79688 195.844,9.98438 C196.094,10.3802 196.453,10.5781 196.922,10.5781 L197.703,10.5781 L197.703,11 L196.938,11 C196.448,11 196.031,10.8568 195.688,10.5703 C195.344,10.2839 195.172,9.76563 195.172,9.01563 L195.172,5.40625 L194.453,5.40625 L194.453,4.98438 L195.172,4.98438 L195.172,3.28125 L195.672,3.28125 M199.406,8.60938 L199.406,4.98438 L199.891,4.98438 L199.891,8.57813 C199.891,9.35938 200.016,9.90885 200.266,10.2266 C200.516,10.5443 200.885,10.7031 201.375,10.7031 C201.948,10.7031 202.438,10.5313 202.844,10.1875 C203.25,9.84375 203.453,9.24479 203.453,8.39063 L203.453,4.98438 L203.938,4.98438 L203.938,11 L203.453,11 L203.453,9.875 C203.276,10.2396 203.042,10.5156 202.75,10.7031 C202.333,10.9948 201.87,11.1406 201.359,11.1406 C200.766,11.1406 200.292,10.9375 199.938,10.5313 C199.583,10.1354 199.406,9.49479 199.406,8.60938 M209.844,5.15625 L209.844,5.70313 C209.49,5.50521 209.271,5.39583 209.188,5.375 C208.938,5.32292 208.625,5.29167 208.25,5.28125 C207.688,5.28125 207.245,5.39063 206.922,5.60938 C206.672,5.79688 206.547,6.11458 206.547,6.5625 C206.547,6.875 206.667,7.11458 206.906,7.28125 C207.146,7.46875 207.495,7.61458 207.953,7.71875 L208.297,7.78125 C208.87,7.90625 209.302,8.08333 209.594,8.3125 C209.938,8.58333 210.115,8.92708 210.125,9.34375 C210.125,9.90625 209.958,10.349 209.625,10.6719 C209.271,10.9948 208.693,11.1563 207.891,11.1563 C207.453,11.1563 207.12,11.125 206.891,11.0625 C206.609,10.9896 206.318,10.8958 206.016,10.7813 L206.016,10.1563 C206.453,10.4063 206.734,10.5521 206.859,10.5938 C207.214,10.6875 207.568,10.7344 207.922,10.7344 C208.495,10.7344 208.922,10.6146 209.203,10.375 C209.484,10.125 209.625,9.80729 209.625,9.42188 C209.625,9.08854 209.531,8.84896 209.344,8.70313 C209.073,8.48438 208.646,8.30729 208.063,8.17188 L207.719,8.09375 C207.208,7.96875 206.823,7.80208 206.563,7.59375 C206.229,7.32292 206.063,6.99479 206.063,6.60938 C206.063,5.98438 206.263,5.53385 206.664,5.25781 C207.065,4.98177 207.557,4.84375 208.141,4.84375 C208.641,4.84375 208.984,4.86979 209.172,4.92188 C209.401,4.98438 209.625,5.0625 209.844,5.15625 "/>
</g>

<g fill="none" stroke="#000000" stroke-opacity="1" stroke-width="1" stroke-linecap="square" stroke-linejoin="bevel" transform="matrix(1.99364,0,0,1.99364,257.651,89.7138)"
font-family="sans" font-size="11" font-weight="100" font-style="normal" 
>
</g>

<g fill="none" stroke="#000000" stroke-opacity="1" stroke-width="1" stroke-linecap="square" stroke-linejoin="bevel" transform="matrix(1.99364,0,0,1.99364,257.651,89.7138)"
font-family="Ubuntu" font-size="11" font-weight="400" font-style="normal" 
>
</g>

<g fill="none" stroke="#000000" stroke-opacity="1" stroke-width="1" stroke-linecap="square" stroke-linejoin="bevel" transform="matrix(1.99364,0,0,1.99364,-0.000398728,142.39)"
font-family="Ubuntu" font-size="11" font-weight="400" font-style="normal" 
>
</g>

<g fill="#000000" fill-opacity="1" stroke="#000000" stroke-opacity="1" stroke-width="1" stroke-linecap="square" stroke-linejoin="round" transform="matrix(1.99364,0,0,1.99364,-0.000398728,142.39)"
font-family="Ubuntu" font-size="11" font-weight="400" font-style="normal" 
>
<path vector-effect="none" fill-rule="evenodd" d="M107.29,-15.11 L108.174,-18.5232 L97.538,-17.637 L106.406,-11.6968 L107.29,-15.11"/>
</g>

<g fill="none" stroke="#000000" stroke-opacity="1" stroke-width="1" stroke-linecap="square" stroke-linejoin="bevel" transform="matrix(1.99364,0,0,1.99364,-0.000398728,142.39)"
font-family="Ubuntu" font-size="11" font-weight="400" font-style="normal" 
>
</g>

<g fill="none" stroke="#000000" stroke-opacity="1" stroke-width="1" stroke-linecap="square" stroke-linejoin="bevel" transform="matrix(1,0,0,1,0,0)"
font-family="Ubuntu" font-size="11" font-weight="400" font-style="normal" 
>
</g>
</g>
</svg>
